<svg width="29" height="29" viewBox="0 0 29 29" fill="none" xmlns="http://www.w3.org/2000/svg">
<g clip-path="url(#clip0_18_1013)">
<path d="M16.4309 0.121646C16.8425 0.121646 17.2107 0.377846 17.3493 0.761446L18.3377 3.50125C18.6919 3.58945 18.9957 3.67765 19.2533 3.77005C19.5347 3.87085 19.8973 4.02345 20.3453 4.23205L22.6469 3.01405C22.8347 2.91452 23.0498 2.87859 23.2598 2.91166C23.4698 2.94472 23.6635 3.045 23.8117 3.19745L25.8361 5.29045C26.1049 5.56905 26.1805 5.97645 26.0293 6.33205L24.9499 8.86185C25.1291 9.19085 25.2719 9.47225 25.3811 9.70745C25.4987 9.96365 25.6443 10.3164 25.8179 10.7714L28.3337 11.8494C28.7117 12.0104 28.9455 12.3884 28.9203 12.793L28.7355 15.698C28.7228 15.8868 28.6551 16.0676 28.5406 16.2182C28.4261 16.3688 28.2699 16.4824 28.0915 16.545L25.7087 17.392C25.6401 17.721 25.5687 18.0024 25.4931 18.2404C25.3711 18.608 25.2319 18.9696 25.0759 19.324L26.2729 21.97C26.3573 22.156 26.3801 22.364 26.3378 22.5638C26.2954 22.7636 26.1903 22.9446 26.0377 23.0802L23.7613 25.113C23.6113 25.2464 23.4243 25.3307 23.2251 25.3547C23.0259 25.3787 22.8242 25.3413 22.6469 25.2474L20.3005 24.0042C19.9334 24.1986 19.5546 24.3702 19.1665 24.518L18.1417 24.9016L17.2317 27.4216C17.1642 27.6062 17.0426 27.766 16.8827 27.8802C16.7228 27.9944 16.5321 28.0576 16.3357 28.0614L13.6757 28.1216C13.474 28.1269 13.2757 28.0696 13.1079 27.9575C12.9402 27.8455 12.8113 27.6842 12.7391 27.4958L11.6667 24.658C11.3008 24.533 10.9385 24.3976 10.5803 24.252C10.2873 24.1252 9.99869 23.9884 9.71506 23.8418L7.05506 24.9786C6.87979 25.0534 6.68656 25.0756 6.4989 25.0426C6.31123 25.0095 6.13722 24.9226 5.99806 24.7924L4.02966 22.9458C3.88311 22.809 3.7833 22.6295 3.74436 22.4327C3.70542 22.236 3.72931 22.032 3.81266 21.8496L4.95646 19.3576C4.80434 19.0625 4.66331 18.7617 4.53366 18.456C4.38232 18.0819 4.24226 17.7032 4.11366 17.3206L1.60766 16.5576C1.40396 16.4961 1.22629 16.369 1.10224 16.1961C0.978196 16.0232 0.914715 15.8141 0.921657 15.6014L1.01966 12.912C1.02663 12.7366 1.08145 12.5663 1.17818 12.4198C1.2749 12.2732 1.40986 12.1559 1.56846 12.0804L4.19766 10.8176C4.31946 10.371 4.42586 10.0238 4.51966 9.77045C4.65173 9.43199 4.79841 9.09941 4.95926 8.77365L3.81966 6.36565C3.73317 6.18278 3.70691 5.9772 3.74464 5.77847C3.78238 5.57973 3.88217 5.39809 4.02966 5.25965L5.99526 3.40325C6.13305 3.27329 6.30546 3.18591 6.49174 3.15164C6.67802 3.11736 6.87023 3.13765 7.04526 3.21005L9.70246 4.30765C9.99646 4.11165 10.2625 3.95345 10.5033 3.82605C10.7903 3.67345 11.1739 3.51385 11.6569 3.34165L12.5809 0.764246C12.6492 0.575621 12.774 0.412679 12.9384 0.297669C13.1028 0.182659 13.2986 0.121186 13.4993 0.121646H16.4309ZM14.9553 9.94825C12.6215 9.94825 10.7301 11.8172 10.7301 14.1244C10.7301 16.4316 12.6215 18.302 14.9553 18.302C17.2877 18.302 19.1791 16.4316 19.1791 14.1244C19.1791 11.8172 17.2891 9.94825 14.9553 9.94825Z" fill="#0D62FF"/>
</g>
<defs>
<clipPath id="clip0_18_1013">
<rect width="28" height="28" fill="white" transform="translate(0.921509 0.121643)"/>
</clipPath>
</defs>
</svg>
