<svg width="29" height="29" viewBox="0 0 29 29" fill="none" xmlns="http://www.w3.org/2000/svg">
<path d="M6.75484 6.56923H13.7548C14.3965 6.56923 14.9215 6.04423 14.9215 5.40257C14.9215 4.7609 14.3965 4.2359 13.7548 4.2359H6.75484C5.47151 4.2359 4.42151 5.2859 4.42151 6.56923V22.9026C4.42151 24.1859 5.47151 25.2359 6.75484 25.2359H13.7548C14.3965 25.2359 14.9215 24.7109 14.9215 24.0692C14.9215 23.4276 14.3965 22.9026 13.7548 22.9026H6.75484V6.56923Z" fill="white"/>
<path d="M25.0132 14.3276L21.7582 11.0726C21.677 10.9892 21.5729 10.9319 21.459 10.9081C21.3451 10.8843 21.2268 10.895 21.119 10.9389C21.0113 10.9827 20.9191 11.0577 20.8542 11.1543C20.7893 11.2508 20.7547 11.3646 20.7548 11.4809V13.5692H12.5882C11.9465 13.5692 11.4215 14.0942 11.4215 14.7359C11.4215 15.3776 11.9465 15.9026 12.5882 15.9026H20.7548V17.9909C20.7548 18.5159 21.3848 18.7726 21.7465 18.3992L25.0015 15.1442C25.2348 14.9226 25.2348 14.5492 25.0132 14.3276Z" fill="white"/>
</svg>
