<svg width="52" height="43" viewBox="0 0 52 43" fill="none" xmlns="http://www.w3.org/2000/svg">
<path fill-rule="evenodd" clip-rule="evenodd" d="M34.6 31.3332C33.8669 31.3332 33.2414 30.789 33.1221 30.047C33.0121 29.4468 32.5908 28.9564 32.024 28.7691C31.5622 28.6064 31.1107 28.4146 30.672 28.1947C30.1501 27.9209 29.5239 27.9619 29.04 28.3014C28.4545 28.7332 27.6501 28.6663 27.14 28.1434L25.156 26.1086C24.6221 25.5609 24.5527 24.6975 24.992 24.0675C25.3308 23.5599 25.3796 22.9053 25.12 22.3506C24.949 21.9654 24.7981 21.5709 24.668 21.1691C24.4817 20.5359 23.9676 20.0616 23.334 19.9383C22.57 19.8132 22.0059 19.1402 22 18.3465V15.8009C21.996 14.8862 22.6401 14.1039 23.52 13.9547C24.1875 13.8245 24.7449 13.3555 25 12.7096C25.076 12.5277 25.156 12.3472 25.24 12.1681C25.5793 11.4982 25.5324 10.6914 25.118 10.0675C24.5998 9.32884 24.6794 8.31388 25.306 7.66959L26.764 6.17421C27.4831 5.4364 28.6172 5.34092 29.444 5.94857L29.49 5.98139C30.1074 6.40756 30.893 6.48475 31.578 6.18652C32.3109 5.91597 32.8511 5.27009 33 4.486L33.0201 4.41626C33.1846 3.37825 34.0587 2.61567 35.0841 2.61523H36.8441C37.897 2.61474 38.7957 3.39589 38.968 4.46139L39 4.60498C39.1413 5.3561 39.6535 5.97774 40.352 6.246C41.0252 6.54235 41.7994 6.46496 42.4041 6.04088L42.504 5.96703C43.3522 5.34003 44.5186 5.43647 45.2581 6.19472L46.6 7.57318C47.2726 8.26685 47.3571 9.35766 46.8 10.1516C46.3635 10.8153 46.3079 11.6681 46.6539 12.3855L46.7401 12.5906C47.0203 13.2911 47.6269 13.7988 48.352 13.9404C49.2999 14.0989 49.9969 14.9371 50 15.9219V18.205C49.9998 19.0735 49.3873 19.8144 48.552 19.9568C47.865 20.092 47.3054 20.6021 47.0939 21.286C47.0006 21.5594 46.8966 21.8331 46.7819 22.1065C46.5151 22.7075 46.5744 23.4079 46.9381 23.9527C47.4178 24.6374 47.3434 25.5779 46.7621 26.1742L44.9001 28.086C44.3676 28.6321 43.5278 28.7024 42.9161 28.2522C42.4053 27.8942 41.7438 27.8548 41.1961 28.1496C40.8057 28.348 40.4051 28.524 39.9961 28.6768C39.424 28.8792 39.0023 29.3814 38.8921 29.9917C38.7754 30.7594 38.1335 31.3274 37.376 31.3332H34.6Z" stroke="#0D62FF" stroke-width="4" stroke-linecap="round" stroke-linejoin="round"/>
<path fill-rule="evenodd" clip-rule="evenodd" d="M40.666 16.9741C40.666 19.6172 38.577 21.7598 36 21.7598C33.4229 21.7598 31.334 19.6172 31.334 16.9741C31.334 14.3311 33.4229 12.1885 36 12.1885C38.577 12.1885 40.666 14.3311 40.666 16.9741Z" stroke="#0D62FF" stroke-width="4" stroke-linecap="round" stroke-linejoin="round"/>
<path d="M21.4828 30.7661L19.8104 29.0916C19.5244 28.8052 19.2933 28.2434 19.2933 27.8468V25.4672C19.2933 24.4977 18.5011 23.7046 17.5329 23.7046H15.1673C14.7712 23.7046 14.21 23.4732 13.924 23.1868L12.2515 21.5123C11.5694 20.8292 10.4471 20.8292 9.76492 21.5123L8.07051 23.1868C7.79544 23.4732 7.2343 23.7046 6.8272 23.7046H4.46161C3.49337 23.7046 2.70117 24.4977 2.70117 25.4672V27.8358C2.70117 28.2324 2.47012 28.7942 2.18404 29.0806L0.511627 30.7551C-0.170542 31.4382 -0.170542 32.5618 0.511627 33.2449L2.18404 34.9194C2.47012 35.2058 2.70117 35.7676 2.70117 36.1642V38.5328C2.70117 39.5023 3.49337 40.2954 4.46161 40.2954H6.8272C7.2233 40.2954 7.78444 40.5268 8.07051 40.8132L9.74291 42.4877C10.4251 43.1708 11.5474 43.1708 12.2295 42.4877L13.902 40.8132C14.188 40.5268 14.7492 40.2954 15.1453 40.2954H17.5108C18.4791 40.2954 19.2713 39.5023 19.2713 38.5328V36.1642C19.2713 35.7676 19.5023 35.2058 19.7884 34.9194L21.4608 33.2449C22.176 32.5729 22.176 31.4492 21.4828 30.7661ZM6.59614 28.7061C6.59614 28.1002 7.09127 27.6044 7.69642 27.6044C8.30157 27.6044 8.79669 28.1002 8.79669 28.7061C8.79669 29.312 8.31257 29.8077 7.69642 29.8077C7.09127 29.8077 6.59614 29.312 6.59614 28.7061ZM8.27956 35.8998C8.11452 36.0651 7.90547 36.1422 7.69642 36.1422C7.48736 36.1422 7.27831 36.0651 7.11327 35.8998C6.79419 35.5804 6.79419 35.0516 7.11327 34.7321L13.7149 28.1222C14.034 27.8027 14.5621 27.8027 14.8812 28.1222C15.2003 28.4417 15.2003 28.9705 14.8812 29.2899L8.27956 35.8998ZM14.298 36.4176C13.6819 36.4176 13.1868 35.9219 13.1868 35.316C13.1868 34.7101 13.6819 34.2143 14.287 34.2143C14.8922 34.2143 15.3873 34.7101 15.3873 35.316C15.3873 35.9219 14.9032 36.4176 14.298 36.4176Z" fill="#0D62FF"/>
</svg>
