<svg width="57" height="48" viewBox="0 0 57 48" fill="none" xmlns="http://www.w3.org/2000/svg">
<path d="M0.0014566 47.2043C0.0014566 43.2627 1.39169 39.6437 3.71003 36.8084C6.07058 33.9216 9.39466 31.8484 13.1916 31.0768C13.5354 31.0076 13.8738 31.169 14.0396 31.4564L15.4271 33.8469C15.5331 34.03 15.5589 34.2388 15.5127 34.4287H15.5155L13.8779 41.2936L16.5007 43.1418L19.1236 41.2936L17.486 34.4287C17.433 34.2063 17.4792 33.9825 17.5974 33.8049L18.9619 31.4551C19.1453 31.1392 19.5149 30.9954 19.8533 31.0849C23.6325 31.8632 26.9403 33.931 29.2914 36.8068C31.6112 39.6421 33 43.2626 33 47.2027C33 47.6434 32.6426 48 32.2009 48H0.799083C0.358786 48 0 47.6434 0 47.2027L0.0014566 47.2043ZM21.794 26.7513C20.4392 28.1032 18.5679 28.9398 16.5008 28.9398C14.4337 28.9398 12.5626 28.1032 11.2076 26.7513C9.85267 25.3995 9.01552 23.5323 9.01552 21.4699C9.01552 19.4075 9.85403 17.5405 11.2076 16.1885C12.5624 14.8366 14.4337 14 16.5008 14C18.5679 14 20.439 14.8366 21.794 16.1885C23.1489 17.5403 23.9861 19.4075 23.9861 21.4699C23.9861 23.5323 23.1476 25.3993 21.794 26.7513Z" fill="white"/>
<path fill-rule="evenodd" clip-rule="evenodd" d="M39.6 31.3332C38.8669 31.3332 38.2414 30.789 38.1221 30.047C38.0121 29.4468 37.5908 28.9564 37.024 28.7691C36.5622 28.6064 36.1107 28.4146 35.672 28.1947C35.1501 27.9209 34.5239 27.9619 34.04 28.3014C33.4545 28.7332 32.6501 28.6663 32.14 28.1434L30.156 26.1086C29.6221 25.5609 29.5527 24.6975 29.992 24.0675C30.3308 23.5599 30.3796 22.9053 30.12 22.3506C29.949 21.9654 29.7981 21.5709 29.668 21.1691C29.4817 20.5359 28.9676 20.0616 28.334 19.9383C27.57 19.8132 27.0059 19.1402 27 18.3465V15.8009C26.996 14.8862 27.6401 14.1039 28.52 13.9547C29.1875 13.8245 29.7449 13.3555 30 12.7096C30.076 12.5277 30.156 12.3472 30.24 12.1681C30.5793 11.4982 30.5324 10.6914 30.118 10.0675C29.5998 9.32884 29.6794 8.31388 30.306 7.66959L31.764 6.17421C32.4831 5.4364 33.6172 5.34092 34.444 5.94857L34.49 5.98139C35.1074 6.40756 35.893 6.48475 36.578 6.18652C37.3109 5.91597 37.8511 5.27009 38 4.486L38.0201 4.41626C38.1846 3.37825 39.0587 2.61567 40.0841 2.61523H41.8441C42.897 2.61474 43.7957 3.39589 43.968 4.46139L44 4.60498C44.1413 5.3561 44.6535 5.97774 45.352 6.246C46.0252 6.54235 46.7994 6.46496 47.4041 6.04088L47.504 5.96703C48.3522 5.34003 49.5186 5.43647 50.2581 6.19472L51.6 7.57318C52.2726 8.26685 52.3571 9.35766 51.8 10.1516C51.3635 10.8153 51.3079 11.6681 51.6539 12.3855L51.7401 12.5906C52.0203 13.2911 52.6269 13.7988 53.352 13.9404C54.2999 14.0989 54.9969 14.9371 55 15.9219V18.205C54.9998 19.0735 54.3873 19.8144 53.552 19.9568C52.865 20.092 52.3054 20.6021 52.0939 21.286C52.0006 21.5594 51.8966 21.8331 51.7819 22.1065C51.5151 22.7075 51.5744 23.4079 51.9381 23.9527C52.4178 24.6374 52.3434 25.5779 51.7621 26.1742L49.9001 28.086C49.3676 28.6321 48.5278 28.7024 47.9161 28.2522C47.4053 27.8942 46.7438 27.8548 46.1961 28.1496C45.8057 28.348 45.4051 28.524 44.9961 28.6768C44.424 28.8792 44.0023 29.3814 43.8921 29.9917C43.7754 30.7594 43.1335 31.3274 42.376 31.3332H39.6Z" stroke="white" stroke-width="4" stroke-linecap="round" stroke-linejoin="round"/>
<path fill-rule="evenodd" clip-rule="evenodd" d="M45.666 16.9741C45.666 19.6172 43.577 21.7598 41 21.7598C38.4229 21.7598 36.334 19.6172 36.334 16.9741C36.334 14.3311 38.4229 12.1885 41 12.1885C43.577 12.1885 45.666 14.3311 45.666 16.9741Z" stroke="white" stroke-width="4" stroke-linecap="round" stroke-linejoin="round"/>
</svg>
