<svg width="52" height="43" viewBox="0 0 52 43" fill="none" xmlns="http://www.w3.org/2000/svg">
<path fill-rule="evenodd" clip-rule="evenodd" d="M34.6 31.3332C33.8669 31.3332 33.2414 30.789 33.1221 30.047C33.0121 29.4468 32.5908 28.9564 32.024 28.7691C31.5622 28.6064 31.1107 28.4146 30.672 28.1947C30.1501 27.9209 29.5239 27.9619 29.04 28.3014C28.4545 28.7332 27.6501 28.6663 27.14 28.1434L25.156 26.1086C24.6221 25.5609 24.5527 24.6975 24.992 24.0675C25.3308 23.5599 25.3796 22.9053 25.12 22.3506C24.949 21.9654 24.7981 21.5709 24.668 21.1691C24.4817 20.5359 23.9676 20.0616 23.334 19.9383C22.57 19.8132 22.0059 19.1402 22 18.3465V15.8009C21.996 14.8862 22.6401 14.1039 23.52 13.9547C24.1875 13.8245 24.7449 13.3555 25 12.7096C25.076 12.5277 25.156 12.3472 25.24 12.1681C25.5793 11.4982 25.5324 10.6914 25.118 10.0675C24.5998 9.32884 24.6794 8.31388 25.306 7.66959L26.764 6.17421C27.4831 5.4364 28.6172 5.34092 29.444 5.94857L29.49 5.98139C30.1074 6.40756 30.893 6.48475 31.578 6.18652C32.3109 5.91597 32.8511 5.27009 33 4.486L33.0201 4.41626C33.1846 3.37825 34.0587 2.61567 35.0841 2.61523H36.8441C37.897 2.61474 38.7957 3.39589 38.968 4.46139L39 4.60498C39.1413 5.3561 39.6535 5.97774 40.352 6.246C41.0252 6.54235 41.7994 6.46496 42.4041 6.04088L42.504 5.96703C43.3522 5.34003 44.5186 5.43647 45.2581 6.19472L46.6 7.57318C47.2726 8.26685 47.3571 9.35766 46.8 10.1516C46.3635 10.8153 46.3079 11.6681 46.6539 12.3855L46.7401 12.5906C47.0203 13.2911 47.6269 13.7988 48.352 13.9404C49.2999 14.0989 49.9969 14.9371 50 15.9219V18.205C49.9998 19.0735 49.3873 19.8144 48.552 19.9568C47.865 20.092 47.3054 20.6021 47.0939 21.286C47.0006 21.5594 46.8966 21.8331 46.7819 22.1065C46.5151 22.7075 46.5744 23.4079 46.9381 23.9527C47.4178 24.6374 47.3434 25.5779 46.7621 26.1742L44.9001 28.086C44.3676 28.6321 43.5278 28.7024 42.9161 28.2522C42.4053 27.8942 41.7438 27.8548 41.1961 28.1496C40.8057 28.348 40.4051 28.524 39.9961 28.6768C39.424 28.8792 39.0023 29.3814 38.8921 29.9917C38.7754 30.7594 38.1335 31.3274 37.376 31.3332H34.6Z" stroke="#0D62FF" stroke-width="4" stroke-linecap="round" stroke-linejoin="round"/>
<path fill-rule="evenodd" clip-rule="evenodd" d="M40.666 16.9741C40.666 19.6172 38.577 21.7598 36 21.7598C33.4229 21.7598 31.334 19.6172 31.334 16.9741C31.334 14.3311 33.4229 12.1885 36 12.1885C38.577 12.1885 40.666 14.3311 40.666 16.9741Z" stroke="#0D62FF" stroke-width="4" stroke-linecap="round" stroke-linejoin="round"/>
<path d="M8.77778 31H22M8.77778 34.7778H22M8.77778 38.5556H22M5 31H5.00944M5 34.7778H5.00944M5 38.5556H5.00944" stroke="#0D62FF" stroke-width="2.56" stroke-linecap="round" stroke-linejoin="round"/>
</svg>
