<svg width="53" height="48" viewBox="0 0 53 48" fill="none" xmlns="http://www.w3.org/2000/svg">
<path fill-rule="evenodd" clip-rule="evenodd" d="M35.6 31.3332C34.8669 31.3332 34.2414 30.789 34.1221 30.047C34.0121 29.4468 33.5908 28.9564 33.024 28.7691C32.5622 28.6064 32.1107 28.4146 31.672 28.1947C31.1501 27.9209 30.5239 27.9619 30.04 28.3014C29.4545 28.7332 28.6501 28.6663 28.14 28.1434L26.156 26.1086C25.6221 25.5609 25.5527 24.6975 25.992 24.0675C26.3308 23.5599 26.3796 22.9053 26.12 22.3506C25.949 21.9654 25.7981 21.5709 25.668 21.1691C25.4817 20.5359 24.9676 20.0616 24.334 19.9383C23.57 19.8132 23.0059 19.1402 23 18.3465V15.8009C22.996 14.8862 23.6401 14.1039 24.52 13.9547C25.1875 13.8245 25.7449 13.3555 26 12.7096C26.076 12.5277 26.156 12.3472 26.24 12.1681C26.5793 11.4982 26.5324 10.6914 26.118 10.0675C25.5998 9.32884 25.6794 8.31388 26.306 7.66959L27.764 6.17421C28.4831 5.4364 29.6172 5.34092 30.444 5.94857L30.49 5.98139C31.1074 6.40756 31.893 6.48475 32.578 6.18652C33.3109 5.91597 33.8511 5.27009 34 4.486L34.0201 4.41626C34.1846 3.37825 35.0587 2.61567 36.0841 2.61523H37.8441C38.897 2.61474 39.7957 3.39589 39.968 4.46139L40 4.60498C40.1413 5.3561 40.6535 5.97774 41.352 6.246C42.0252 6.54235 42.7994 6.46496 43.4041 6.04088L43.504 5.96703C44.3522 5.34003 45.5186 5.43647 46.2581 6.19472L47.6 7.57318C48.2726 8.26685 48.3571 9.35766 47.8 10.1516C47.3635 10.8153 47.3079 11.6681 47.6539 12.3855L47.7401 12.5906C48.0203 13.2911 48.6269 13.7988 49.352 13.9404C50.2999 14.0989 50.9969 14.9371 51 15.9219V18.205C50.9998 19.0735 50.3873 19.8144 49.552 19.9568C48.865 20.092 48.3054 20.6021 48.0939 21.286C48.0006 21.5594 47.8966 21.8331 47.7819 22.1065C47.5151 22.7075 47.5744 23.4079 47.9381 23.9527C48.4178 24.6374 48.3434 25.5779 47.7621 26.1742L45.9001 28.086C45.3676 28.6321 44.5278 28.7024 43.9161 28.2522C43.4053 27.8942 42.7438 27.8548 42.1961 28.1496C41.8057 28.348 41.4051 28.524 40.9961 28.6768C40.424 28.8792 40.0023 29.3814 39.8921 29.9917C39.7754 30.7594 39.1335 31.3274 38.376 31.3332H35.6Z" stroke="white" stroke-width="4" stroke-linecap="round" stroke-linejoin="round"/>
<path fill-rule="evenodd" clip-rule="evenodd" d="M41.666 16.9741C41.666 19.6172 39.577 21.7598 37 21.7598C34.4229 21.7598 32.334 19.6172 32.334 16.9741C32.334 14.3311 34.4229 12.1885 37 12.1885C39.577 12.1885 41.666 14.3311 41.666 16.9741Z" stroke="white" stroke-width="4" stroke-linecap="round" stroke-linejoin="round"/>
<path d="M0 33.5918V33.191C0 33.0645 0.0369141 32.9643 0.126563 32.8746C0.216211 32.785 0.316406 32.748 0.442969 32.748H9.95625C10.0828 32.748 10.183 32.785 10.2727 32.8746C10.3623 32.9643 10.3992 33.0645 10.3992 33.191V33.5918C10.3992 33.7184 10.3623 33.8186 10.2727 33.9082C10.183 33.9979 10.0828 34.0348 9.95625 34.0348H9.40254V36.102H12.0656C12.092 35.7486 12.2396 35.448 12.5033 35.2107C12.767 34.9734 13.0781 34.8469 13.4473 34.8469C13.8111 34.8469 14.1117 34.9734 14.3754 35.2107C14.6391 35.448 14.7762 35.7486 14.8131 36.102H16.4689V31.8463C16.2949 31.8357 16.1525 31.7725 16.0312 31.6459C15.9047 31.5193 15.8414 31.3559 15.8414 31.1818V30.7916C15.8414 30.6176 15.9047 30.4541 16.0418 30.3117C16.1789 30.1746 16.3424 30.1113 16.5322 30.1113H19.0318C19.2217 30.1113 19.3852 30.1746 19.5117 30.3117C19.6383 30.4488 19.7016 30.6018 19.7016 30.7916V31.1818C19.7016 31.3559 19.6383 31.5193 19.5275 31.6459C19.4168 31.7725 19.2744 31.8463 19.1004 31.8463V36.102H21.0568C21.3943 36.102 21.6949 36.2285 21.948 36.4764C22.2012 36.7295 22.3225 37.0301 22.3225 37.3676V41.0432L27 47.1604H21.0516V43.3424H20.1604C20.2975 43.6693 20.3607 44.0227 20.3607 44.3813C20.3607 45.1459 20.0971 45.7893 19.5592 46.3377C19.0213 46.8756 18.3674 47.1551 17.6133 47.1551C16.8486 47.1551 16.2053 46.8809 15.6568 46.3377C15.1189 45.7998 14.8395 45.1459 14.8395 44.3813C14.8395 44.0174 14.9027 43.6641 15.0398 43.3424H13.7848C13.9219 43.6799 13.9957 44.0332 13.9957 44.3813C13.9957 45.1459 13.7215 45.7893 13.1783 46.3377C12.6404 46.8914 11.9865 47.1551 11.2219 47.1551C10.4572 47.1551 9.81387 46.8809 9.27598 46.3377C8.73809 45.7998 8.47441 45.1459 8.47441 44.3813C8.47441 44.0174 8.5377 43.6641 8.6748 43.3424H7.18242C7.33535 43.7062 7.40918 44.0596 7.40918 44.3813C7.40918 45.1459 7.13496 45.7893 6.5918 46.3377C6.05391 46.8914 5.4 47.1551 4.63535 47.1551C3.8707 47.1551 3.22734 46.8809 2.67891 46.3377C2.1252 45.7998 1.86152 45.1459 1.86152 44.3813C1.86152 44.0174 1.93535 43.6641 2.07246 43.3266C1.77187 43.2738 1.5082 43.1367 1.30781 42.8994C1.10742 42.6621 1.00723 42.3826 1.00723 42.0715V40.9904H0.980859V34.0295H0.437695C0.311133 34.0295 0.210938 33.9926 0.121289 33.9029C0.0369141 33.8186 0 33.7184 0 33.5918ZM2.57344 38.5383C2.57344 38.802 2.66309 39.0287 2.84766 39.2186C3.0375 39.4084 3.26426 39.4928 3.52793 39.4928H5.33672C5.60039 39.4928 5.82715 39.4031 6.00117 39.2186C6.1752 39.0287 6.27539 38.802 6.27539 38.5383V35.6484C6.27539 35.3848 6.18574 35.1738 6.00117 34.984C5.8166 34.7941 5.60039 34.7098 5.33672 34.7098H3.54375C3.28008 34.7098 3.05332 34.7994 2.86348 34.9998C2.67363 35.1896 2.58926 35.4006 2.58926 35.6537V38.5436H2.57344V38.5383ZM14.4703 24.4898C14.4703 25.0066 14.6707 25.4443 15.0609 25.7977C15.0609 26.0508 15.1717 26.3355 15.3879 26.652C15.5988 26.9684 15.8414 27.1529 16.0893 27.2057C16.142 27.4799 16.2791 27.7225 16.4795 27.9229C16.6799 28.1127 16.933 28.2393 17.2178 28.2973C17.0807 28.4344 17.0174 28.5979 17.0174 28.7877C17.0174 29.0145 17.0912 29.2043 17.2441 29.352C17.3971 29.5049 17.5816 29.5787 17.8084 29.5787C18.0352 29.5787 18.225 29.5049 18.3832 29.3414C18.5467 29.1885 18.6205 28.9881 18.6205 28.7771L18.61 28.6664L18.5994 28.5398H18.6363C18.9 28.5398 19.1268 28.4396 19.3113 28.2498C19.5012 28.06 19.6014 27.8227 19.6014 27.559C19.6014 27.4324 19.5486 27.2848 19.4484 27.0844C19.6594 26.9684 19.8387 26.768 19.9652 26.4938H20.5295C21.0199 26.4674 21.4471 26.2828 21.7846 25.9295C22.1379 25.5762 22.3119 25.1648 22.3119 24.6639C22.3119 24.2367 22.1748 23.8623 21.8953 23.5354C21.6211 23.2084 21.2678 22.9975 20.8564 22.8814C20.7563 22.3805 20.4926 21.9639 20.076 21.6369C19.6594 21.31 19.1848 21.1465 18.668 21.1465C18.1512 21.1465 17.7029 21.31 17.3127 21.6264C16.9225 21.9428 16.6588 22.3541 16.5322 22.8445H16.3951C15.8783 22.8445 15.4301 23.008 15.0398 23.335C14.6602 23.6355 14.4703 24.0416 14.4703 24.4898Z" fill="white"/>
</svg>
