<svg width="88" height="75" viewBox="0 0 88 75" fill="none" xmlns="http://www.w3.org/2000/svg">
<path d="M56.3673 43.5936H56.4264C58.068 43.5936 59.4263 42.2102 59.4616 40.4808C59.4616 40.2214 59.438 39.9744 59.379 39.7273L62.9221 38.1215C63.4654 38.9244 64.3394 39.4556 65.3432 39.4804H65.4023C66.1936 39.4804 66.9376 39.1715 67.5045 38.591C68.095 37.9981 68.4258 37.2075 68.4376 36.3675C68.4494 35.9476 68.3667 35.5399 68.2368 35.157L71.2721 33.1436V33.1559C71.839 33.7735 72.5948 34.107 73.3979 34.1318H73.457C74.2483 34.1318 74.9923 33.823 75.5592 33.2424C76.1497 32.6495 76.4686 31.8589 76.4923 31.019C76.5041 30.6237 76.4332 30.2408 76.3033 29.8825L81.1102 26.8933C81.1338 26.918 81.1456 26.9427 81.1692 26.9674C81.7361 27.585 82.492 27.9309 83.2951 27.9433H83.3542C84.1455 27.9433 84.8895 27.6345 85.4564 27.0539C86.0469 26.461 86.3777 25.6704 86.3894 24.8305C86.4249 23.0764 85.0903 21.6312 83.4132 21.5941C81.7007 21.5694 80.3543 22.9529 80.3188 24.7069C80.307 25.1022 80.3779 25.4727 80.496 25.831L75.6891 28.8326C75.6655 28.8079 75.6537 28.7832 75.6419 28.7585C75.075 28.1409 74.3191 27.8074 73.516 27.7827C72.6892 27.758 71.9333 28.0791 71.3546 28.672C70.7641 29.265 70.4452 30.0555 70.4216 30.8955C70.4098 31.3155 70.4806 31.7355 70.6224 32.106L67.5989 34.1195C67.0556 33.5265 66.2997 33.1436 65.4612 33.1313C64.6226 33.1066 63.8786 33.4277 63.2999 34.0206C62.7093 34.6136 62.3786 35.4041 62.3668 36.2441C62.3668 36.5035 62.3904 36.7505 62.4495 36.9976L58.9064 38.6033C58.8119 38.4675 58.7292 38.344 58.6111 38.2204C58.0442 37.6028 57.2883 37.2569 56.4852 37.2446C54.8081 37.2075 53.4263 38.6034 53.3908 40.3574C53.3554 42.1114 54.6903 43.5689 56.3673 43.5936Z" fill="#0D62FF"/>
<path d="M53.9519 56.5938H58.8283C59.1429 56.5938 59.3901 56.3094 59.3901 55.9475V49.24C59.3901 48.8781 59.1429 48.5938 58.8283 48.5938H53.9519C53.6373 48.5938 53.3901 48.8781 53.3901 49.24V55.9475C53.3901 56.3094 53.6373 56.5938 53.9519 56.5938Z" fill="#0D62FF"/>
<path d="M68.7347 41.5938H63.0456C62.6785 41.5938 62.3901 41.8916 62.3901 42.2706V55.9169C62.3901 56.2959 62.6785 56.5937 63.0456 56.5937H68.7347C69.1017 56.5937 69.3901 56.2959 69.3901 55.9169V42.2706C69.3901 41.8916 69.1017 41.5938 68.7347 41.5938Z" fill="#0D62FF"/>
<path d="M72.9519 37.5938C72.6373 37.5938 72.3901 37.8648 72.3901 38.2098V55.9777C72.3901 56.3227 72.6373 56.5937 72.9519 56.5937H77.8283C78.1429 56.5937 78.3901 56.3227 78.3901 55.9777V38.2098C78.3901 37.8648 78.1429 37.5938 77.8283 37.5938H72.9519Z" fill="#0D62FF"/>
<path d="M85.922 31.5938H81.8583C81.5961 31.5938 81.3901 31.872 81.3901 32.226V55.9615C81.3901 56.3155 81.5961 56.5937 81.8583 56.5937H85.922C86.1841 56.5937 86.3901 56.3155 86.3901 55.9615V32.226C86.3901 31.872 86.1841 31.5938 85.922 31.5938Z" fill="#0D62FF"/>
<path d="M43.5361 23.464C38.7197 18.6476 32.317 16 25.5033 16C18.6897 16 12.2869 18.6478 7.4706 23.464C-0.176322 31.1109 -2.17366 42.7981 2.50583 52.5335C2.51724 52.5564 2.54007 52.5792 2.55148 52.602C2.5629 52.6249 2.57431 52.6477 2.58572 52.6819C2.59713 52.7047 2.63137 52.7162 2.64279 52.739C2.67703 52.7846 2.72268 52.8189 2.76833 52.8531C2.81398 52.8874 2.84822 52.9102 2.89387 52.933C2.95094 52.9558 2.99659 52.9787 3.05366 52.9901C3.09931 53.0015 3.14497 53.0129 3.20204 53.0129C3.2591 53.0129 3.30476 53.0129 3.36182 53.0015C3.41889 52.9901 3.47596 52.9787 3.52161 52.9558C3.54444 52.9444 3.57868 52.9444 3.6015 52.933C3.62433 52.9216 3.64716 52.8988 3.66999 52.8874C3.69281 52.8759 3.72705 52.8645 3.74988 52.8531L7.11678 50.3194C7.42494 50.0911 7.53907 49.6688 7.37929 49.315C6.42059 47.0894 5.90699 44.7383 5.80426 42.3302H7.3108C7.76733 42.3302 8.14398 41.9535 8.14398 41.497C8.14398 41.0404 7.76734 40.6638 7.3108 40.6638H5.82705C5.9526 37.7762 6.70587 34.9572 8.05264 32.4004L9.33093 33.1422C9.46789 33.2221 9.60485 33.2564 9.75322 33.2564C10.0386 33.2564 10.3239 33.108 10.4837 32.8341C10.7119 32.4346 10.575 31.921 10.1755 31.6927L8.89723 30.9509C10.438 28.5199 12.4924 26.4541 14.9465 24.8905L15.6884 26.1802C15.8481 26.4541 16.1221 26.6025 16.4188 26.6025C16.5558 26.6025 16.7041 26.5682 16.8411 26.4884C17.2406 26.2601 17.3775 25.7465 17.1493 25.347L16.4074 24.0574C18.9526 22.7334 21.7945 22.003 24.6708 21.8889V23.3269C24.6708 23.7834 25.0475 24.1601 25.504 24.1601C25.9606 24.1601 26.3372 23.7835 26.3372 23.3269V21.8889C29.2134 22.003 32.0553 22.7334 34.6006 24.0574L33.8588 25.347C33.6305 25.7465 33.7675 26.2601 34.1669 26.4884C34.3039 26.5683 34.4408 26.6025 34.5892 26.6025C34.8746 26.6025 35.1599 26.4541 35.3197 26.1802L36.0615 24.8905C38.4926 26.4427 40.5583 28.5085 42.1108 30.9398L40.8211 31.6816C40.4217 31.9099 40.2847 32.4235 40.513 32.823C40.6728 33.0969 40.9467 33.2452 41.2434 33.2452C41.3804 33.2452 41.5287 33.211 41.6657 33.1311L42.9554 32.3893C44.2908 34.9344 45.044 37.7535 45.1696 40.6527H43.6858C43.2293 40.6527 42.8527 41.0293 42.8527 41.4859C42.8527 41.9424 43.2293 42.3191 43.6858 42.3191H45.181C45.0783 44.7615 44.5647 47.1012 43.606 49.2928C43.4462 49.6466 43.5603 50.0689 43.8685 50.2972L47.2354 52.8309C47.2468 52.8423 47.2696 52.8423 47.281 52.8537C47.3153 52.8766 47.3381 52.9108 47.3723 52.9222C47.4865 52.9793 47.612 53.0021 47.7375 53.0021C47.8745 53.0021 48.0115 52.9565 48.1484 52.888C48.1827 52.8652 48.2169 52.8309 48.2511 52.7967C48.3082 52.751 48.3653 52.7168 48.4109 52.6597C48.4338 52.6255 48.4338 52.5912 48.4566 52.557C48.468 52.5342 48.4908 52.5342 48.4908 52.5113C53.1703 42.7987 51.1844 31.1115 43.5374 23.4646L43.5361 23.464Z" fill="#0D62FF"/>
<path d="M39.2227 49.4741H11.7853C11.3288 49.4741 10.9521 49.8508 10.9521 50.3073V56.4477C10.9521 56.9043 11.3288 57.2809 11.7853 57.2809H39.2227C39.6793 57.2809 40.0559 56.9043 40.0559 56.4477V50.3073C40.0559 49.8508 39.6793 49.4741 39.2227 49.4741Z" fill="#0D62FF"/>
<path d="M33.2866 28.4284C32.9328 28.2116 32.4763 28.2915 32.2138 28.611L24.6925 37.616C22.9006 37.9927 21.5425 39.5905 21.5425 41.4965C21.5425 43.6765 23.323 45.4569 25.5029 45.4569C27.6828 45.4569 29.4632 43.6764 29.4632 41.4965C29.4632 41.0172 29.3605 40.5606 29.2121 40.1383L33.6291 29.4668C33.7889 29.0901 33.6405 28.6453 33.2866 28.4284Z" fill="#0D62FF"/>
</svg>
