<svg width="86" height="75" viewBox="0 0 86 75" fill="none" xmlns="http://www.w3.org/2000/svg">
<path d="M54.3673 43.5936H54.4264C56.068 43.5936 57.4263 42.2102 57.4616 40.4808C57.4616 40.2214 57.438 39.9744 57.379 39.7273L60.9221 38.1215C61.4654 38.9244 62.3394 39.4556 63.3432 39.4804H63.4023C64.1936 39.4804 64.9376 39.1715 65.5045 38.591C66.095 37.9981 66.4258 37.2075 66.4376 36.3675C66.4494 35.9476 66.3667 35.5399 66.2368 35.157L69.2721 33.1436V33.1559C69.839 33.7735 70.5948 34.107 71.3979 34.1318H71.457C72.2483 34.1318 72.9923 33.823 73.5592 33.2424C74.1497 32.6495 74.4686 31.8589 74.4923 31.019C74.5041 30.6237 74.4332 30.2408 74.3033 29.8825L79.1102 26.8933C79.1338 26.918 79.1456 26.9427 79.1692 26.9674C79.7361 27.585 80.492 27.9309 81.2951 27.9433H81.3542C82.1455 27.9433 82.8895 27.6345 83.4564 27.0539C84.0469 26.461 84.3777 25.6704 84.3894 24.8305C84.4249 23.0764 83.0903 21.6312 81.4132 21.5941C79.7007 21.5694 78.3543 22.9529 78.3188 24.7069C78.307 25.1022 78.3779 25.4727 78.496 25.831L73.6891 28.8326C73.6655 28.8079 73.6537 28.7832 73.6419 28.7585C73.075 28.1409 72.3191 27.8074 71.516 27.7827C70.6892 27.758 69.9333 28.0791 69.3546 28.672C68.7641 29.265 68.4452 30.0555 68.4216 30.8955C68.4098 31.3155 68.4806 31.7355 68.6224 32.106L65.5989 34.1195C65.0556 33.5265 64.2997 33.1436 63.4612 33.1313C62.6226 33.1066 61.8786 33.4277 61.2999 34.0206C60.7093 34.6136 60.3786 35.4041 60.3668 36.2441C60.3668 36.5035 60.3904 36.7505 60.4495 36.9976L56.9064 38.6033C56.8119 38.4675 56.7292 38.344 56.6111 38.2204C56.0442 37.6028 55.2883 37.2569 54.4852 37.2446C52.8081 37.2075 51.4263 38.6034 51.3908 40.3574C51.3554 42.1114 52.6903 43.5689 54.3673 43.5936Z" fill="white"/>
<path d="M51.9519 56.5938H56.8283C57.1429 56.5938 57.3901 56.3094 57.3901 55.9475V49.24C57.3901 48.8781 57.1429 48.5938 56.8283 48.5938H51.9519C51.6373 48.5938 51.3901 48.8781 51.3901 49.24V55.9475C51.3901 56.3094 51.6373 56.5938 51.9519 56.5938Z" fill="white"/>
<path d="M66.7347 41.5938H61.0456C60.6785 41.5938 60.3901 41.8916 60.3901 42.2706V55.9169C60.3901 56.2959 60.6785 56.5937 61.0456 56.5937H66.7347C67.1017 56.5937 67.3901 56.2959 67.3901 55.9169V42.2706C67.3901 41.8916 67.1017 41.5938 66.7347 41.5938Z" fill="white"/>
<path d="M70.9519 37.5938C70.6373 37.5938 70.3901 37.8648 70.3901 38.2098V55.9777C70.3901 56.3227 70.6373 56.5937 70.9519 56.5937H75.8283C76.1429 56.5937 76.3901 56.3227 76.3901 55.9777V38.2098C76.3901 37.8648 76.1429 37.5938 75.8283 37.5938H70.9519Z" fill="white"/>
<path d="M83.922 31.5938H79.8583C79.5961 31.5938 79.3901 31.872 79.3901 32.226V55.9615C79.3901 56.3155 79.5961 56.5937 79.8583 56.5937H83.922C84.1841 56.5937 84.3901 56.3155 84.3901 55.9615V32.226C84.3901 31.872 84.1841 31.5938 83.922 31.5938Z" fill="white"/>
<path d="M4.0019 55.9702C4.0019 50.8694 5.81341 46.1859 8.83429 42.5167C11.9102 38.7809 16.2415 36.0979 21.1891 35.0993C21.6371 35.0099 22.078 35.2187 22.294 35.5907L24.102 38.6843C24.2401 38.9212 24.2738 39.1914 24.2136 39.4371H24.2171L22.0833 48.3212L25.5009 50.7129L28.9186 48.3212L26.7848 39.4371C26.7157 39.1493 26.7759 38.8597 26.93 38.6299L28.7079 35.5889C28.9469 35.1801 29.4286 34.9941 29.8695 35.1099C34.7939 36.1171 39.1041 38.7931 42.1676 42.5147C45.1904 46.1839 47 50.8692 47 55.9682C47 56.5385 46.5343 57 45.9588 57H5.04123C4.46751 57 4 56.5385 4 55.9682L4.0019 55.9702ZM32.3983 29.5017C30.6328 31.2512 28.1945 32.3339 25.501 32.3339C22.8076 32.3339 20.3695 31.2512 18.6038 29.5017C16.8383 27.7522 15.7475 25.336 15.7475 22.6669C15.7475 19.998 16.8401 17.5818 18.6038 15.8322C20.3692 14.0827 22.8076 13 25.501 13C28.1945 13 30.6326 14.0827 32.3983 15.8322C34.1638 17.5816 35.2546 19.9979 35.2546 22.6669C35.2546 25.3359 34.162 27.752 32.3983 29.5017Z" fill="white"/>
</svg>
