<svg width="800" height="800" viewBox="0 0 800 800" fill="none" xmlns="http://www.w3.org/2000/svg">
<g clip-path="url(#clip0_511_19)">
<path d="M0 42.1704V168.767H47.7816V533.269C47.7816 566.359 78.2138 593.279 115.622 593.279H377.211V625.463C350.807 634.859 331.848 660.093 331.848 689.679C331.848 727.255 362.42 757.827 399.999 757.827C437.574 757.827 468.146 727.255 468.146 689.679C468.146 660.093 449.187 634.859 422.786 625.463V593.279H684.376C721.783 593.279 752.216 566.359 752.216 533.269V168.767H800V42.1704H0ZM399.999 712.253C387.551 712.253 377.422 702.127 377.422 689.679C377.422 677.232 387.551 667.106 399.999 667.106C412.446 667.106 422.572 677.232 422.572 689.679C422.572 702.127 412.446 712.253 399.999 712.253ZM706.641 533.269C706.641 540.099 697.495 547.704 684.376 547.704H115.622C102.502 547.704 93.3558 540.096 93.3558 533.269V168.767H706.639V533.269H706.641Z" fill="white"/>
<path d="M172.29 495.089H636.483C640.063 495.089 642.966 492.186 642.966 488.606V460.082C642.966 456.502 640.063 453.599 636.483 453.599H584.306V373.603C584.306 366.915 578.834 361.443 572.143 361.443H541.418C534.73 361.443 529.258 366.915 529.258 373.603V453.599H505.642V315.208C505.642 308.52 500.17 303.045 493.48 303.045H462.754C456.066 303.045 450.594 308.517 450.594 315.208V453.599H426.981V236.339C426.981 227.862 420.045 220.929 411.571 220.929H387.343C378.869 220.929 371.933 227.865 371.933 236.339V453.599H348.32V372.523C348.32 368.065 344.674 364.419 340.217 364.419H301.373C296.915 364.419 293.269 368.065 293.269 372.523V453.599H269.656V291.199C269.656 282.722 262.721 275.789 254.247 275.789H230.018C221.541 275.789 214.609 282.722 214.609 291.199V453.599H172.29C168.71 453.599 165.807 456.502 165.807 460.082V488.606C165.81 492.186 168.712 495.089 172.29 495.089Z" fill="white"/>
</g>
<defs>
<clipPath id="clip0_511_19">
<rect width="800" height="800" fill="white"/>
</clipPath>
</defs>
</svg>
