<svg width="86" height="75" viewBox="0 0 86 75" fill="none" xmlns="http://www.w3.org/2000/svg">
<path d="M54.3673 43.5936H54.4264C56.068 43.5936 57.4263 42.2102 57.4616 40.4808C57.4616 40.2214 57.438 39.9744 57.379 39.7273L60.9221 38.1215C61.4654 38.9244 62.3394 39.4556 63.3432 39.4804H63.4023C64.1936 39.4804 64.9376 39.1715 65.5045 38.591C66.095 37.9981 66.4258 37.2075 66.4376 36.3675C66.4494 35.9476 66.3667 35.5399 66.2368 35.157L69.2721 33.1436V33.1559C69.839 33.7735 70.5948 34.107 71.3979 34.1318H71.457C72.2483 34.1318 72.9923 33.823 73.5592 33.2424C74.1497 32.6495 74.4686 31.8589 74.4923 31.019C74.5041 30.6237 74.4332 30.2408 74.3033 29.8825L79.1102 26.8933C79.1338 26.918 79.1456 26.9427 79.1692 26.9674C79.7361 27.585 80.492 27.9309 81.2951 27.9433H81.3542C82.1455 27.9433 82.8895 27.6345 83.4564 27.0539C84.0469 26.461 84.3777 25.6704 84.3894 24.8305C84.4249 23.0764 83.0903 21.6312 81.4132 21.5941C79.7007 21.5694 78.3543 22.9529 78.3188 24.7069C78.307 25.1022 78.3779 25.4727 78.496 25.831L73.6891 28.8326C73.6655 28.8079 73.6537 28.7832 73.6419 28.7585C73.075 28.1409 72.3191 27.8074 71.516 27.7827C70.6892 27.758 69.9333 28.0791 69.3546 28.672C68.7641 29.265 68.4452 30.0555 68.4216 30.8955C68.4098 31.3155 68.4806 31.7355 68.6224 32.106L65.5989 34.1195C65.0556 33.5265 64.2997 33.1436 63.4612 33.1313C62.6226 33.1066 61.8786 33.4277 61.2999 34.0206C60.7093 34.6136 60.3786 35.4041 60.3668 36.2441C60.3668 36.5035 60.3904 36.7505 60.4495 36.9976L56.9064 38.6033C56.8119 38.4675 56.7292 38.344 56.6111 38.2204C56.0442 37.6028 55.2883 37.2569 54.4852 37.2446C52.8081 37.2075 51.4263 38.6034 51.3908 40.3574C51.3554 42.1114 52.6903 43.5689 54.3673 43.5936Z" fill="white"/>
<path d="M51.9519 56.5938H56.8283C57.1429 56.5938 57.3901 56.3094 57.3901 55.9475V49.24C57.3901 48.8781 57.1429 48.5938 56.8283 48.5938H51.9519C51.6373 48.5938 51.3901 48.8781 51.3901 49.24V55.9475C51.3901 56.3094 51.6373 56.5938 51.9519 56.5938Z" fill="white"/>
<path d="M66.7347 41.5938H61.0456C60.6785 41.5938 60.3901 41.8916 60.3901 42.2706V55.9169C60.3901 56.2959 60.6785 56.5937 61.0456 56.5937H66.7347C67.1017 56.5937 67.3901 56.2959 67.3901 55.9169V42.2706C67.3901 41.8916 67.1017 41.5938 66.7347 41.5938Z" fill="white"/>
<path d="M70.9519 37.5938C70.6373 37.5938 70.3901 37.8648 70.3901 38.2098V55.9777C70.3901 56.3227 70.6373 56.5937 70.9519 56.5937H75.8283C76.1429 56.5937 76.3901 56.3227 76.3901 55.9777V38.2098C76.3901 37.8648 76.1429 37.5938 75.8283 37.5938H70.9519Z" fill="white"/>
<path d="M83.922 31.5938H79.8583C79.5961 31.5938 79.3901 31.872 79.3901 32.226V55.9615C79.3901 56.3155 79.5961 56.5937 79.8583 56.5937H83.922C84.1841 56.5937 84.3901 56.3155 84.3901 55.9615V32.226C84.3901 31.872 84.1841 31.5938 83.922 31.5938Z" fill="white"/>
<path d="M25.4992 50.747C36.1181 50.747 44.7455 42.1192 44.7455 31.5007C44.7455 20.8821 36.1178 12.2544 25.4992 12.2544C14.8807 12.2544 6.25293 20.8821 6.25293 31.5007C6.25293 42.1192 14.8807 50.747 25.4992 50.747ZM16.9734 36.9374C16.9734 36.2227 17.535 35.6611 18.2497 35.6611C18.9645 35.6611 19.526 36.2227 19.526 36.9374V38.1371C19.526 40.8428 21.5681 43.1403 24.2228 43.4466V32.7256H24.1718C22.3339 32.5469 20.5981 31.7301 19.2708 30.4283C17.7647 28.9223 16.9479 26.9313 16.9479 24.8126C16.9479 20.7284 20.1131 17.2568 24.1718 16.925H24.1973V15.6232C24.1973 14.9085 24.7589 14.3469 25.4736 14.3469C26.1884 14.3469 26.7499 14.9085 26.7499 15.6232V16.9505H26.7755C30.8342 17.3079 33.9994 20.7539 33.9994 24.8381V26.0633C33.9994 26.7781 33.4378 27.3396 32.7231 27.3396C32.0084 27.3396 31.4468 26.7781 31.4468 26.0633V24.8381C31.4468 22.1324 29.3792 19.835 26.75 19.5286V30.2496H26.7755C30.8342 30.607 33.9994 34.053 33.9994 38.1372C33.9994 40.2559 33.1826 42.2468 31.6765 43.7529C30.3747 45.0548 28.6389 45.8716 26.7755 46.0502H26.7244V47.352C26.7244 48.0668 26.1629 48.6283 25.4481 48.6283C24.7334 48.6283 24.1718 48.0668 24.1718 47.352V46.0502H24.1463C20.0876 45.6928 16.9224 42.2468 16.9224 38.1626V36.9374H16.9734Z" fill="white"/>
<path d="M24.2242 19.5283C21.5439 19.8857 19.5273 22.1576 19.5273 24.8378C19.5273 26.2672 20.0889 27.6201 21.11 28.6411C21.9523 29.4835 23.0754 30.0195 24.2497 30.1727V19.5283H24.2242Z" fill="white"/>
<path d="M25.5 57C39.5649 57 51 45.5643 51 31.5C51 17.4357 39.5643 6 25.5 6C11.4357 6 0 17.4357 0 31.5C0 45.5643 11.4357 57 25.5 57ZM25.5 9.70027C37.5228 9.70027 47.2997 19.4768 47.2997 31.5C47.2997 43.5232 37.5232 53.2997 25.5 53.2997C13.4768 53.2997 3.70027 43.5232 3.70027 31.5C3.70027 19.4768 13.4768 9.70027 25.5 9.70027Z" fill="white"/>
<path d="M31.4746 38.162C31.4746 35.4563 29.4071 33.1589 26.7778 32.8525V43.4714C27.9776 43.3183 29.0751 42.7822 29.9176 41.9654C30.9386 40.9443 31.4746 39.5914 31.4746 38.162Z" fill="white"/>
</svg>
