<svg width="800" height="800" viewBox="0 0 800 800" fill="none" xmlns="http://www.w3.org/2000/svg">
<g clip-path="url(#clip0_511_14)">
<path d="M325 0C146.094 0 0 146.094 0 325C0 503.906 146.094 650 325 650C396.484 650 462.695 626.563 516.406 587.109L713.672 784.375C761.523 831.25 831.836 759.375 783.984 712.5L587.5 516.016C626.758 462.305 650 396.289 650 325C650 146.094 503.906 0 325 0ZM325 100C449.805 100 550 200.195 550 325C550 449.805 449.805 550 325 550C200.195 550 100 449.805 100 325C100 200.195 200.195 100 325 100Z" fill="white"/>
</g>
<defs>
<clipPath id="clip0_511_14">
<rect width="800" height="800" fill="white"/>
</clipPath>
</defs>
</svg>
