<svg width="1095" height="1369" viewBox="0 0 1095 1369" fill="none" xmlns="http://www.w3.org/2000/svg">
<path d="M1041.34 808.258H988.785V602.36C988.785 587.027 975.645 573.885 960.315 573.885H766.5V515.839C766.5 500.506 753.36 487.364 738.03 487.364H718.32V412.89H744.6C765.405 412.89 775.26 387.701 759.93 373.463L562.83 190.565C554.07 181.803 539.835 181.803 532.17 190.565L335.07 374.558C319.74 388.796 329.595 413.986 350.4 413.986H375.585V488.459H355.875C340.545 488.459 327.405 501.602 327.405 516.934V574.98H135.78C120.45 574.98 107.31 588.122 107.31 603.455V810.448H53.655C38.325 810.448 27.375 822.495 27.375 836.733C27.375 852.066 39.42 863.018 53.655 863.018H393.105C402.96 863.018 411.72 854.256 411.72 844.399V734.879C411.72 658.215 475.23 590.313 551.88 592.503C588.015 593.598 619.77 608.931 643.86 631.93C669.045 657.12 683.28 691.071 683.28 728.308V844.399C683.28 854.256 692.04 863.018 701.895 863.018H1040.25C1055.58 863.018 1066.53 850.97 1066.53 836.733C1067.62 820.305 1055.58 808.258 1041.34 808.258ZM227.76 728.308C227.76 732.689 224.475 734.879 221.19 734.879H170.82C166.44 734.879 163.155 731.594 163.155 728.308V681.214C163.155 676.834 166.44 673.548 170.82 673.548H221.19C224.475 673.548 227.76 676.834 227.76 681.214V728.308ZM348.21 728.308C348.21 732.689 344.925 734.879 341.64 734.879H291.27C286.89 734.879 283.605 731.594 283.605 728.308V681.214C283.605 676.834 286.89 673.548 291.27 673.548H341.64C344.925 673.548 348.21 676.834 348.21 681.214V728.308ZM618.675 477.507L606.63 465.46C603.345 462.174 596.775 462.174 593.49 465.46C590.205 468.746 590.205 475.317 593.49 478.602L605.535 490.65C591.3 501.602 574.875 509.268 556.26 511.458V495.03C556.26 489.554 551.88 486.269 547.5 486.269C543.12 486.269 538.74 490.65 538.74 495.03V511.458C520.125 509.268 502.605 502.697 489.465 490.65L501.51 478.602C504.795 475.317 504.795 468.746 501.51 465.46C498.225 462.174 491.655 462.174 488.37 465.46L476.325 477.507C465.375 463.27 457.71 446.842 455.52 428.223H471.945C477.42 428.223 480.705 423.842 480.705 419.462C480.705 413.986 476.325 410.7 471.945 410.7H455.52C457.71 392.082 464.28 374.558 476.325 361.416L488.37 373.463C490.56 375.654 492.75 375.654 494.94 375.654C497.13 375.654 499.32 374.558 501.51 373.463C504.795 370.178 504.795 363.606 501.51 360.321L489.465 348.274C505.89 335.131 525.6 326.37 548.595 326.37C571.59 326.37 591.3 335.131 607.725 348.274L595.68 360.321C592.395 363.606 592.395 370.178 595.68 373.463C597.87 375.654 600.06 375.654 602.25 375.654C604.44 375.654 606.63 374.558 608.82 373.463L620.865 361.416C631.815 375.654 639.48 392.082 641.67 410.7H625.245C619.77 410.7 616.485 415.081 616.485 419.462C616.485 424.938 620.865 428.223 625.245 428.223H641.67C637.29 446.842 630.72 464.365 618.675 477.507ZM810.3 728.308C810.3 732.689 807.015 734.879 803.73 734.879H753.36C748.98 734.879 746.79 731.594 746.79 728.308V681.214C746.79 676.834 750.075 673.548 753.36 673.548H803.73C808.11 673.548 810.3 676.834 810.3 681.214V728.308ZM931.845 728.308C931.845 732.689 928.56 734.879 925.275 734.879H874.905C870.525 734.879 867.24 731.594 867.24 728.308V681.214C867.24 676.834 870.525 673.548 874.905 673.548H925.275C929.655 673.548 931.845 676.834 931.845 681.214V728.308Z" fill="white"/>
<path d="M584.73 410.7H560.64C559.545 409.605 558.45 407.415 556.26 406.319V360.321C556.26 354.845 551.88 351.559 547.5 351.559C543.12 351.559 538.74 355.94 538.74 360.321V406.319C534.36 409.605 532.17 413.986 532.17 419.462C532.17 428.223 539.835 435.89 548.595 435.89C554.07 435.89 558.45 432.604 561.735 429.319H585.825C591.3 429.319 594.585 424.938 594.585 420.557C593.49 413.986 589.11 410.7 584.73 410.7Z" fill="white"/>
<path d="M614.295 831.257H616.485C625.245 831.257 632.91 823.59 632.91 814.829V784.163C632.91 769.926 631.815 755.688 630.72 741.45L623.055 672.453C621.96 664.786 616.485 659.31 609.915 658.215L588.015 654.93C574.875 652.739 561.735 651.644 548.595 651.644C535.455 651.644 522.315 652.739 509.175 654.93L487.275 658.215C479.61 659.31 474.135 664.786 474.135 672.453L466.47 741.45C465.375 755.688 464.28 769.926 464.28 784.163V814.829C464.28 823.59 471.945 831.257 480.705 831.257H482.895L459.9 893.683C457.71 900.254 460.995 907.921 467.565 910.111C468.66 911.206 470.85 911.206 471.945 911.206C477.42 911.206 481.8 907.921 483.99 902.445L490.56 884.922H608.82L615.39 902.445C617.58 907.921 621.96 911.206 627.435 911.206C628.53 911.206 630.72 911.206 631.815 910.111C638.385 907.921 641.67 900.254 639.48 893.683L614.295 831.257ZM492.75 786.354C492.75 778.687 499.32 772.116 506.985 772.116C514.65 772.116 521.22 778.687 521.22 786.354C521.22 794.02 514.65 800.591 506.985 800.591C499.32 801.686 492.75 795.115 492.75 786.354ZM498.225 858.637L508.08 831.257H586.92L596.775 858.637H498.225ZM588.015 801.686C580.35 801.686 573.78 795.115 573.78 787.449C573.78 779.782 580.35 773.211 588.015 773.211C595.68 773.211 602.25 779.782 602.25 787.449C602.25 795.115 595.68 801.686 588.015 801.686ZM490.56 744.736L497.13 683.405L511.365 681.214C523.41 679.024 535.455 679.024 547.5 679.024C559.545 679.024 571.59 680.119 583.635 681.214L597.87 683.405L604.44 744.736H490.56Z" fill="white"/>
</svg>
