<svg width="800" height="800" viewBox="0 0 800 800" fill="none" xmlns="http://www.w3.org/2000/svg">
<path d="M717.63 362.297L666.963 311.63C658.297 302.964 651.297 285.964 651.297 273.964V201.964C651.297 172.63 627.297 148.63 597.963 148.63H526.297C514.297 148.63 497.297 141.63 488.63 132.964L437.963 82.2971C417.297 61.6305 383.297 61.6305 362.63 82.2971L311.297 132.964C302.964 141.63 285.964 148.63 273.63 148.63H201.964C172.63 148.63 148.63 172.63 148.63 201.964V273.63C148.63 285.63 141.63 302.63 132.964 311.297L82.2969 361.963C61.6302 382.63 61.6302 416.63 82.2969 437.297L132.964 487.963C141.63 496.63 148.63 513.63 148.63 525.63V597.297C148.63 626.63 172.63 650.63 201.964 650.63H273.63C285.63 650.63 302.63 657.63 311.297 666.297L361.963 716.963C382.63 737.63 416.63 737.63 437.297 716.963L487.963 666.297C496.63 657.63 513.63 650.63 525.63 650.63H597.297C626.63 650.63 650.63 626.63 650.63 597.297V525.63C650.63 513.63 657.63 496.63 666.296 487.963L716.963 437.297C738.63 416.963 738.63 382.963 717.63 362.297ZM266.63 299.964C266.63 281.63 281.63 266.63 299.964 266.63C318.297 266.63 333.297 281.63 333.297 299.964C333.297 318.297 318.63 333.297 299.964 333.297C281.63 333.297 266.63 318.297 266.63 299.964ZM317.63 517.63C312.63 522.63 306.297 524.963 299.964 524.963C293.63 524.963 287.297 522.63 282.297 517.63C272.63 507.963 272.63 491.963 282.297 482.297L482.297 282.297C491.963 272.63 507.963 272.63 517.63 282.297C527.297 291.964 527.297 307.964 517.63 317.63L317.63 517.63ZM499.963 533.297C481.297 533.297 466.297 518.297 466.297 499.963C466.297 481.63 481.297 466.63 499.63 466.63C517.963 466.63 532.963 481.63 532.963 499.963C532.963 518.297 518.297 533.297 499.963 533.297Z" fill="white"/>
</svg>
