<svg width="512" height="512" viewBox="0 0 512 512" fill="none" xmlns="http://www.w3.org/2000/svg">
<path d="M0 245.4V237.8C0 235.4 0.7 233.5 2.4 231.8C4.1 230.1 6 229.4 8.4 229.4H188.8C191.2 229.4 193.1 230.1 194.8 231.8C196.5 233.5 197.2 235.4 197.2 237.8V245.4C197.2 247.8 196.5 249.7 194.8 251.4C193.1 253.1 191.2 253.8 188.8 253.8H178.3V293H228.8C229.3 286.3 232.1 280.6 237.1 276.1C242.1 271.6 248 269.2 255 269.2C261.9 269.2 267.6 271.6 272.6 276.1C277.6 280.6 280.2 286.3 280.9 293H312.3V212.3C309 212.1 306.3 210.9 304 208.5C301.6 206.1 300.4 203 300.4 199.7V192.3C300.4 189 301.6 185.9 304.2 183.2C306.8 180.6 309.9 179.4 313.5 179.4H360.9C364.5 179.4 367.6 180.6 370 183.2C372.4 185.8 373.6 188.7 373.6 192.3V199.7C373.6 203 372.4 206.1 370.3 208.5C368.2 210.9 365.5 212.3 362.2 212.3V293H399.3C405.7 293 411.4 295.4 416.2 300.1C421 304.9 423.3 310.6 423.3 317V386.7L512 502.7H399.2V430.3H382.3C384.9 436.5 386.1 443.2 386.1 450C386.1 464.5 381.1 476.7 370.9 487.1C360.7 497.3 348.3 502.6 334 502.6C319.5 502.6 307.3 497.4 296.9 487.1C286.7 476.9 281.4 464.5 281.4 450C281.4 443.1 282.6 436.4 285.2 430.3H261.4C264 436.7 265.4 443.4 265.4 450C265.4 464.5 260.2 476.7 249.9 487.1C239.7 497.6 227.3 502.6 212.8 502.6C198.3 502.6 186.1 497.4 175.9 487.1C165.7 476.9 160.7 464.5 160.7 450C160.7 443.1 161.9 436.4 164.5 430.3H136.2C139.1 437.2 140.5 443.9 140.5 450C140.5 464.5 135.3 476.7 125 487.1C114.8 497.6 102.4 502.6 87.9 502.6C73.4 502.6 61.2 497.4 50.8 487.1C40.3 476.9 35.3 464.5 35.3 450C35.3 443.1 36.7 436.4 39.3 430C33.6 429 28.6 426.4 24.8 421.9C21 417.4 19.1 412.1 19.1 406.2V385.7H18.6V253.7H8.3C5.9 253.7 4 253 2.3 251.3C0.7 249.7 0 247.8 0 245.4ZM48.8 339.2C48.8 344.2 50.5 348.5 54 352.1C57.6 355.7 61.9 357.3 66.9 357.3H101.2C106.2 357.3 110.5 355.6 113.8 352.1C117.1 348.5 119 344.2 119 339.2V284.4C119 279.4 117.3 275.4 113.8 271.8C110.3 268.2 106.2 266.6 101.2 266.6H67.2C62.2 266.6 57.9 268.3 54.3 272.1C50.7 275.7 49.1 279.7 49.1 284.5V339.3H48.8V339.2ZM274.4 72.7999C274.4 82.5999 278.2 90.8999 285.6 97.5999C285.6 102.4 287.7 107.8 291.8 113.8C295.8 119.8 300.4 123.3 305.1 124.3C306.1 129.5 308.7 134.1 312.5 137.9C316.3 141.5 321.1 143.9 326.5 145C323.9 147.6 322.7 150.7 322.7 154.3C322.7 158.6 324.1 162.2 327 165C329.9 167.9 333.4 169.3 337.7 169.3C342 169.3 345.6 167.9 348.6 164.8C351.7 161.9 353.1 158.1 353.1 154.1L352.9 152L352.7 149.6H353.4C358.4 149.6 362.7 147.7 366.2 144.1C369.8 140.5 371.7 136 371.7 131C371.7 128.6 370.7 125.8 368.8 122C372.8 119.8 376.2 116 378.6 110.8H389.3C398.6 110.3 406.7 106.8 413.1 100.1C419.8 93.3999 423.1 85.5999 423.1 76.0999C423.1 67.9999 420.5 60.8999 415.2 54.6999C410 48.4999 403.3 44.4999 395.5 42.2999C393.6 32.7999 388.6 24.8999 380.7 18.6999C372.8 12.4999 363.8 9.3999 354 9.3999C344.2 9.3999 335.7 12.4999 328.3 18.4999C320.9 24.4999 315.9 32.2999 313.5 41.5999H310.9C301.1 41.5999 292.6 44.6999 285.2 50.8999C278 56.5999 274.4 64.2999 274.4 72.7999Z" fill="#0D62FF"/>
</svg>
