<svg width="28" height="28" viewBox="0 0 28 28" fill="none" xmlns="http://www.w3.org/2000/svg">
<path opacity="0.4" d="M18.7548 2.33325H22.7051C24.341 2.33325 25.6667 3.67008 25.6667 5.31988V9.30353C25.6667 10.9533 24.341 12.2902 22.7051 12.2902H18.7548C17.1188 12.2902 15.7932 10.9533 15.7932 9.30353V5.31988C15.7932 3.67008 17.1188 2.33325 18.7548 2.33325Z" fill="#0D62FF"/>
<path fill-rule="evenodd" clip-rule="evenodd" d="M5.29496 2.33325H9.24525C10.8812 2.33325 12.2069 3.67008 12.2069 5.31988V9.30353C12.2069 10.9533 10.8812 12.2902 9.24525 12.2902H5.29496C3.65898 12.2902 2.33335 10.9533 2.33335 9.30353V5.31988C2.33335 3.67008 3.65898 2.33325 5.29496 2.33325ZM5.29496 15.7097H9.24525C10.8812 15.7097 12.2069 17.0465 12.2069 18.6963V22.68C12.2069 24.3286 10.8812 25.6666 9.24525 25.6666H5.29496C3.65898 25.6666 2.33334 24.3286 2.33334 22.68V18.6963C2.33334 17.0465 3.65898 15.7097 5.29496 15.7097ZM22.7051 15.7097H18.7548C17.1188 15.7097 15.7932 17.0465 15.7932 18.6963V22.68C15.7932 24.3286 17.1188 25.6666 18.7548 25.6666H22.7051C24.341 25.6666 25.6667 24.3286 25.6667 22.68V18.6963C25.6667 17.0465 24.341 15.7097 22.7051 15.7097Z" fill="#0D62FF"/>
</svg>
