<svg width="29" height="29" viewBox="0 0 29 29" fill="none" xmlns="http://www.w3.org/2000/svg">
<path opacity="0.4" d="M19.6765 2.64053H23.6267C25.2627 2.64053 26.5884 3.97736 26.5884 5.62716V9.61081C26.5884 11.2606 25.2627 12.5974 23.6267 12.5974H19.6765C18.0405 12.5974 16.7148 11.2606 16.7148 9.61081V5.62716C16.7148 3.97736 18.0405 2.64053 19.6765 2.64053Z" fill="white"/>
<path fill-rule="evenodd" clip-rule="evenodd" d="M6.2165 2.64053H10.1668C11.8028 2.64053 13.1284 3.97736 13.1284 5.62716V9.61081C13.1284 11.2606 11.8028 12.5974 10.1668 12.5974H6.2165C4.58052 12.5974 3.25489 11.2606 3.25489 9.61081V5.62716C3.25489 3.97736 4.58052 2.64053 6.2165 2.64053ZM6.21649 16.017H10.1668C11.8028 16.017 13.1284 17.3538 13.1284 19.0036V22.9873C13.1284 24.6359 11.8028 25.9739 10.1668 25.9739H6.21649C4.58051 25.9739 3.25488 24.6359 3.25488 22.9873V19.0036C3.25488 17.3538 4.58051 16.017 6.21649 16.017ZM23.6266 16.017H19.6763C18.0403 16.017 16.7147 17.3538 16.7147 19.0036V22.9873C16.7147 24.6359 18.0403 25.9739 19.6763 25.9739H23.6266C25.2626 25.9739 26.5882 24.6359 26.5882 22.9873V19.0036C26.5882 17.3538 25.2626 16.017 23.6266 16.017Z" fill="white"/>
</svg>
