<svg width="29" height="33" viewBox="0 0 29 33" fill="none" xmlns="http://www.w3.org/2000/svg">
<path d="M15.745 32.5071L15.3333 27.6771H14.9215C11.0235 27.6771 7.71563 26.3489 4.99798 23.6924C2.28033 21.0359 0.921509 17.8025 0.921509 13.9921C0.921509 10.1818 2.28033 6.94838 4.99798 4.29188C7.71563 1.63538 11.0235 0.307129 14.9215 0.307129C16.8705 0.307129 18.6894 0.662402 20.3782 1.37295C22.067 2.0835 23.5494 3.06291 24.8253 4.3112C26.1012 5.55949 27.1026 7.00848 27.8295 8.6582C28.5564 10.3079 28.9204 12.0859 28.9215 13.9921C28.9215 16.0046 28.585 17.9366 27.9119 19.7881C27.2388 21.6396 26.3192 23.357 25.153 24.9401C23.9869 26.5233 22.6006 27.9589 20.9942 29.2469C19.3878 30.5349 17.6381 31.6216 15.745 32.5071ZM14.8803 22.8069C15.347 22.8069 15.745 22.6459 16.0744 22.3239C16.4039 22.0019 16.5686 21.6128 16.5686 21.1566C16.5686 20.7005 16.4039 20.3114 16.0744 19.9894C15.745 19.6674 15.347 19.5064 14.8803 19.5064C14.4137 19.5064 14.0156 19.6674 13.6862 19.9894C13.3568 20.3114 13.1921 20.7005 13.1921 21.1566C13.1921 21.6128 13.3568 22.0019 13.6862 22.3239C14.0156 22.6459 14.4137 22.8069 14.8803 22.8069ZM13.6862 17.6951H16.1568C16.1568 16.8901 16.2392 16.3266 16.4039 16.0046C16.5686 15.6826 17.0901 15.0923 17.9686 14.2336C18.4627 13.7506 18.8745 13.2274 19.2039 12.6639C19.5333 12.1004 19.698 11.4966 19.698 10.8526C19.698 9.48413 19.2242 8.45749 18.2766 7.7727C17.329 7.08791 16.2106 6.74606 14.9215 6.74713C13.7137 6.74713 12.698 7.07611 11.8744 7.73406C11.0509 8.39201 10.4745 9.19004 10.145 10.1281L12.4509 11.0136C12.5882 10.5575 12.849 10.1077 13.2333 9.66445C13.6176 9.22116 14.1803 9.00006 14.9215 9.00113C15.6627 9.00113 16.2183 9.20238 16.5883 9.60488C16.9584 10.0074 17.1439 10.4501 17.145 10.9331C17.145 11.3893 17.0078 11.7988 16.7333 12.1616C16.4588 12.5243 16.1294 12.893 15.745 13.2676C14.7843 14.0726 14.2006 14.7102 13.9942 15.1803C13.7878 15.6504 13.6851 16.4887 13.6862 17.6951Z" fill="#0D62FF"/>
</svg>
