<svg width="512" height="512" viewBox="0 0 512 512" fill="none" xmlns="http://www.w3.org/2000/svg">
<g clip-path="url(#clip0_524_167)">
<path fill-rule="evenodd" clip-rule="evenodd" d="M341.59 234.87C350.81 234.87 359.68 235.99 368.19 238.08C369.18 234.33 368.28 230.13 365.53 227.16L283.8 145.46C279.49 141.11 272.22 140.98 267.73 145.12L145.38 267.5C140.92 271.95 140.92 279.42 145.38 283.87L226.81 365.3C228.44 366.94 230.48 367.98 232.61 368.41C231.14 361.2 230.37 353.74 230.37 346.09C230.37 315.38 242.82 287.57 262.95 267.45C283.07 247.33 310.88 234.87 341.59 234.87ZM383.52 243.05C393.29 247.02 402.33 252.34 410.49 258.79L440.92 228.36C440.14 227.96 439.39 227.42 438.67 226.7L426.84 214.87C426.52 214.55 426.29 214.27 426.03 213.94C419.93 205.4 431.53 195.88 438.67 203.02L450.51 214.86C450.82 215.17 451.05 215.46 451.31 215.79C451.63 216.24 451.91 216.7 452.13 217.16L493.69 175.59C496.16 173.51 496.02 169.17 493.85 167L456.14 129.29C451.733 131.271 447.088 132.673 442.32 133.46C398.4 140.69 365.16 96.1498 383.01 56.1498L345.32 18.4598C342.93 16.0698 338.92 16.0998 336.56 18.4598L295.2 59.8098C295.7 60.1398 296.18 60.5298 296.64 60.9998L308.48 72.8398C308.79 73.1498 309.02 73.4298 309.28 73.7598C315.38 82.2998 303.79 91.8198 296.64 84.6698L284.81 72.8398C284.5 72.5298 284.27 72.2398 284.01 71.9098L283.65 71.3698L71.1901 283.82C71.9001 284.2 72.6001 284.73 73.2601 285.39L85.0901 297.22C85.4001 297.53 85.6301 297.82 85.8901 298.14C91.9901 306.68 80.4001 316.19 73.2601 309.05L61.4201 297.22C61.1101 296.9 60.8801 296.62 60.6101 296.29C60.3401 295.9 60.1001 295.5 59.8901 295.12L18.4601 336.56C16.1101 338.87 16.1301 342.99 18.4601 345.32L55.8201 382.68C60.2601 380.49 64.9701 378.9 69.7601 377.99C108.34 370.56 141.44 404.52 134.16 442.4C133.235 447.237 131.657 451.927 129.47 456.34L166.83 493.69C169.21 496.09 173.23 496.05 175.59 493.69L216.9 452.39C216.34 452.03 215.8 451.6 215.28 451.08L203.44 439.25C203.14 438.93 202.91 438.65 202.64 438.32C196.55 429.78 208.13 420.27 215.28 427.41L227.11 439.25C227.43 439.55 227.65 439.85 227.92 440.17L228.39 440.9L254.29 415C247.21 405.89 241.38 395.71 237.25 384.66C229.4 385.29 221.33 382.63 215.4 376.7L133.97 295.27C123.25 284.55 123.25 266.82 133.97 256.09L256.54 133.57C267.32 123.29 284.61 123.5 295.16 134.03L377.1 215.97C384.13 223.39 386.26 233.81 383.52 243.05ZM422.68 269.98C441.35 289.87 452.81 316.65 452.81 346.09C452.81 376.8 440.36 404.61 420.24 424.73C400.12 444.85 372.29 457.31 341.59 457.31C312.15 457.31 285.36 445.84 265.47 427.17L187.27 505.38L186.74 505.74C177.95 514.2 163.71 514.08 155 505.38L113.21 463.6C110.44 460.83 110.11 456.38 112.22 453.12C114.66 449.37 116.43 445.28 117.45 441.07C124.1 413.44 99.4301 387.58 71.0801 394.38C66.9601 395.36 62.9101 397.09 59.2401 399.44C57.6631 400.615 55.7189 401.19 53.7561 401.062C51.7934 400.934 49.9406 400.111 48.5301 398.74L6.62006 356.85C-2.09994 348.12 -2.26994 333.71 6.52006 324.84L324.73 6.61977C333.51 -2.16023 347.98 -2.25023 356.85 6.61977L398.94 48.6998C401.58 51.3498 402.01 55.6198 400.13 58.8098C382.5 86.8598 407.7 123.5 440.95 116.59C445.03 115.73 449.04 114.2 452.73 112.02C456.08 109.92 460.46 110.23 463.29 113.06L505.38 155.15C514.21 163.97 514.21 178.45 505.38 187.27L422.68 269.98ZM332.16 96.5098C325 89.3698 313.42 98.8798 319.51 107.42C319.78 107.74 320.01 108.04 320.31 108.34L332.15 120.18C339.3 127.33 350.89 117.81 344.79 109.27C344.53 108.94 344.3 108.66 343.99 108.34L332.16 96.5098ZM367.66 132.01C360.52 124.87 348.92 134.38 355.02 142.93C355.28 143.25 355.51 143.54 355.82 143.85L367.66 155.69C374.8 162.83 386.4 153.31 380.29 144.78C380.04 144.45 379.81 144.16 379.49 143.85L367.66 132.01ZM403.17 167.52C396.02 160.38 384.42 169.9 390.53 178.43C390.79 178.75 391.02 179.05 391.33 179.36L403.16 191.19C410.31 198.34 421.9 188.82 415.81 180.28C415.54 179.96 415.31 179.66 415 179.36L403.17 167.52ZM108.76 320.89C101.62 313.74 90.0301 323.26 96.1301 331.8C96.3901 332.12 96.6201 332.42 96.9301 332.72L108.76 344.55C115.9 351.71 127.5 342.19 121.4 333.66C121.14 333.32 120.91 333.04 120.59 332.73L108.76 320.89ZM144.27 356.4C137.12 349.26 125.53 358.76 131.63 367.31C131.89 367.63 132.12 367.92 132.44 368.23L144.27 380.07C151.41 387.21 163 377.69 156.91 369.16C156.64 368.83 156.41 368.54 156.11 368.23L144.27 356.4ZM179.77 391.9C172.63 384.76 161.05 394.27 167.14 402.81C167.4 403.13 167.63 403.43 167.94 403.73L179.77 415.57C186.92 422.71 198.51 413.2 192.41 404.67C192.15 404.33 191.92 404.05 191.61 403.73L179.77 391.9ZM341.59 251.61C393.78 251.61 436.08 293.91 436.08 346.09C436.08 398.27 393.78 440.57 341.59 440.57C289.41 440.57 247.11 398.27 247.11 346.09C247.11 293.91 289.41 251.61 341.59 251.61Z" fill="white"/>
<g clip-path="url(#clip1_524_167)">
<path d="M305.2 301.68C307.41 299.9 309.75 298.25 312.66 296.62C323.31 290.63 335.39 288.1 347.2 289.13C358.74 290.14 370.03 294.56 379.47 302.5C382.86 305.35 385.85 308.41 388.44 311.63C397.37 322.74 401.78 335.91 401.66 349.04C401.53 362.17 396.88 375.25 387.68 386.18C385 389.37 381.95 392.36 378.55 395.09C370.59 401.49 361.26 405.6 351.41 407.16C341.74 408.69 331.58 407.75 321.75 404.09C312.4 400.6 304.07 395.27 297.54 388.31C291.33 381.7 286.76 373.59 284.48 364.2C283.77 361.26 283.3 358.26 283.11 355.21C282.91 352.15 282.98 349.02 283.33 345.81C283.55 343.8 285.36 342.35 287.37 342.57C289.38 342.79 290.83 344.6 290.61 346.61C290.3 349.39 290.24 352.1 290.41 354.75C290.58 357.4 290.98 359.98 291.58 362.48C293.54 370.59 297.49 377.58 302.87 383.32C308.62 389.46 315.99 394.17 324.3 397.26C332.91 400.47 341.81 401.3 350.26 399.96C358.85 398.59 367 395 373.96 389.4C377.03 386.93 379.74 384.28 382.09 381.49C390.16 371.9 394.24 360.46 394.35 348.99C394.46 337.52 390.59 325.99 382.74 316.23C380.41 313.33 377.76 310.61 374.77 308.1C366.55 301.18 356.68 297.33 346.57 296.44C336.2 295.53 325.58 297.76 316.24 303.01C313.42 304.6 311.17 306.22 309 308.02L323.7 308.55C325.72 308.62 327.3 310.31 327.22 312.33C327.15 314.35 325.46 315.93 323.44 315.85L300.02 315C298 314.93 296.42 313.24 296.5 311.22C296.5 311.09 296.52 310.97 296.53 310.85L299.72 288.15C300 286.15 301.84 284.75 303.85 285.03C305.85 285.31 307.25 287.15 306.97 289.16L305.2 301.68Z" fill="white"/>
</g>
</g>
<defs>
<clipPath id="clip0_524_167">
<rect width="512" height="512" fill="white"/>
</clipPath>
<clipPath id="clip1_524_167">
<rect width="122.88" height="118.66" fill="white" transform="matrix(0 1 1 0 283 285)"/>
</clipPath>
</defs>
</svg>
