<svg width="59" height="50" viewBox="0 0 59 50" fill="none" xmlns="http://www.w3.org/2000/svg">
<path d="M23.0967 12.703C23.0967 12.703 22.216 9.94933 25.7706 10.0027H31.1342C33.4273 9.94933 34.8872 10.674 34.435 12.703H23.0967Z" fill="#0D62FF"/>
<path d="M29 10.1861V4" stroke="#0D62FF" stroke-width="1.5" stroke-miterlimit="10"/>
<path d="M28.9563 4.5698C29.9817 4.5698 30.8129 3.7707 30.8129 2.7849C30.8129 1.7991 29.9817 1 28.9563 1C27.9309 1 27.0996 1.7991 27.0996 2.7849C27.0996 3.7707 27.9309 4.5698 28.9563 4.5698Z" fill="#0D62FF" stroke="#0D62FF" stroke-width="0.5" stroke-miterlimit="10"/>
<path d="M19.8525 12.0992L36.8718 12C37.5842 12.0569 38.2764 12.2566 38.9037 12.5864C39.5309 12.9161 40.0794 13.3686 40.5137 13.9146C41.2277 14.8741 41.5522 16.0515 41.4261 17.225L15.5996 17.164C15.6688 15.8302 16.2316 14.5641 17.1865 13.5942C17.9146 12.8689 18.8373 12.3514 19.8525 12.0992Z" fill="#0D62FF"/>
<path d="M15.5436 17.1553C11.9339 18.3233 8.81051 20.5762 6.63452 23.5814C4.45853 26.5865 3.34528 30.1846 3.45911 33.8445C3.57294 37.5044 4.90781 41.0321 7.26668 43.9069C9.6255 46.7817 12.8834 48.8511 16.5592 49.8098L40.9337 50.0005C44.7203 49.1187 48.098 47.0596 50.5423 44.1429C52.9866 41.2263 54.3606 37.6153 54.4511 33.8708C54.5415 30.1263 53.3433 26.4579 51.0425 23.4353C48.7417 20.4127 45.4671 18.2051 41.7272 17.1553H15.5436Z" fill="#0D62FF"/>
<path d="M53 38.4385C53.8788 38.7082 54.8299 38.6594 55.6739 38.3012C56.2375 38.026 56.7267 37.6283 57.1027 37.1398C57.4786 36.6512 57.7311 36.0852 57.84 35.4866C57.9114 33.694 57.9907 31.8939 58.0622 30.1013C57.8818 29.2023 57.3792 28.3926 56.6419 27.813C56.1369 27.4513 55.5548 27.2014 54.9375 27.0814C54.3202 26.9614 53.683 26.9742 53.0714 27.1189C53.4796 29.2105 53.6551 31.3379 53.5951 33.4652C53.5451 35.1363 53.346 36.8002 53 38.4385Z" fill="#0D62FF"/>
<path d="M5.06253 27.172C4.1837 26.9023 3.23258 26.9511 2.38864 27.3093C1.82503 27.5845 1.33584 27.9821 0.959856 28.4707C0.583876 28.9592 0.331436 29.5253 0.222536 30.1239C0.151126 31.9164 0.0717762 33.7166 0.000366211 35.5091C0.180736 36.4082 0.683316 37.2179 1.42064 37.7975C1.92566 38.1592 2.50769 38.409 3.125 38.5291C3.7423 38.6491 4.37957 38.6363 4.99112 38.4916C4.58298 36.4 4.40743 34.2726 4.46745 32.1453C4.51747 30.4742 4.71656 28.8103 5.06253 27.172Z" fill="#0D62FF"/>
<path d="M18.6057 20.71C15.7331 21.3243 13.1483 22.8248 11.2454 24.9829C9.3424 27.1409 8.22586 29.838 8.06586 32.6629C7.90586 35.4878 8.71123 38.2855 10.3592 40.6294C12.0071 42.9733 14.4072 44.7348 17.1934 45.6452L39.4097 45.8665C42.4764 45.3453 45.2541 43.8023 47.2553 41.5085C49.2566 39.2146 50.3535 36.3164 50.3535 33.3226C50.3535 30.3287 49.2566 27.4305 47.2553 25.1367C45.2541 22.8428 42.4764 21.2999 39.4097 20.7787L18.6057 20.71Z" fill="white"/>
<path d="M38.7043 22.2811L18.2494 44.2262C15.7578 43.4418 13.6054 41.8884 12.1263 39.8073C10.6473 37.7262 9.92447 35.2338 10.0701 32.7172C10.2158 30.2006 11.2217 27.8007 12.9317 25.8902C14.6417 23.9796 16.9601 22.6653 19.5268 22.1514L38.371 22.2201C38.4835 22.233 38.5948 22.2534 38.7043 22.2811Z" fill="#0D62FF"/>
<path d="M48.2966 33.3186C48.2879 36.0018 47.2834 38.5939 45.4637 40.6285C43.6441 42.6631 41.1289 44.0065 38.3707 44.4171L18.249 44.2264L38.7039 22.2812C41.3931 22.7522 43.8255 24.1145 45.5781 26.1311C47.3307 28.1476 48.2926 30.6908 48.2966 33.3186Z" fill="#0D62FF"/>
<path d="M20.8752 29.7638H26.0087C26.0432 29.4198 26.0025 29.0726 25.8892 28.7446C25.7759 28.4166 25.5926 28.115 25.3509 27.8592C25.1092 27.6034 24.8145 27.3989 24.4857 27.259C24.157 27.1191 23.8015 27.0469 23.442 27.0469C23.0825 27.0469 22.7269 27.1191 22.3982 27.259C22.0695 27.3989 21.7748 27.6034 21.5331 27.8592C21.2914 28.115 21.108 28.4166 20.9947 28.7446C20.8814 29.0726 20.8407 29.4198 20.8752 29.7638Z" fill="white"/>
<path d="M32.0866 29.8625L37.2202 29.7329C37.2549 29.3825 37.2118 29.0291 37.0938 28.696C36.9759 28.3628 36.7857 28.0576 36.5359 27.8003C36.286 27.5431 35.9823 27.3398 35.6446 27.2038C35.307 27.0679 34.9432 27.0023 34.5773 27.0116C34.2113 27.0208 33.8516 27.1046 33.5219 27.2574C33.1921 27.4103 32.8999 27.6287 32.6645 27.8981C32.4291 28.1676 32.2558 28.4821 32.1562 28.8207C32.0566 29.1593 32.0329 29.5144 32.0866 29.8625Z" fill="white"/>
<path d="M21.8906 33.2646H36.0694C36.0439 34.9396 35.3979 36.551 34.2476 37.8093C33.0973 39.0675 31.5179 39.8903 29.7933 40.1297C25.9134 40.5416 22.0811 37.4904 21.8906 33.2646Z" fill="white"/>
</svg>
