<svg width="60" height="47" viewBox="0 0 60 47" fill="none" xmlns="http://www.w3.org/2000/svg">
<path fill-rule="evenodd" clip-rule="evenodd" d="M42.6 31.3332C41.8669 31.3332 41.2414 30.789 41.1221 30.047C41.0121 29.4468 40.5908 28.9564 40.024 28.7691C39.5622 28.6064 39.1107 28.4146 38.672 28.1947C38.1501 27.9209 37.5239 27.9619 37.04 28.3014C36.4545 28.7332 35.6501 28.6663 35.14 28.1434L33.156 26.1086C32.6221 25.5609 32.5527 24.6975 32.992 24.0675C33.3308 23.5599 33.3796 22.9053 33.12 22.3506C32.949 21.9654 32.7981 21.5709 32.668 21.1691C32.4817 20.5359 31.9676 20.0616 31.334 19.9383C30.57 19.8132 30.0059 19.1402 30 18.3465V15.8009C29.996 14.8862 30.6401 14.1039 31.52 13.9547C32.1875 13.8245 32.7449 13.3555 33 12.7096C33.076 12.5277 33.156 12.3472 33.24 12.1681C33.5793 11.4982 33.5324 10.6914 33.118 10.0675C32.5998 9.32884 32.6794 8.31388 33.306 7.66959L34.764 6.17421C35.4831 5.4364 36.6172 5.34092 37.444 5.94857L37.49 5.98139C38.1074 6.40756 38.893 6.48475 39.578 6.18652C40.3109 5.91597 40.8511 5.27009 41 4.486L41.0201 4.41626C41.1846 3.37825 42.0587 2.61567 43.0841 2.61523H44.8441C45.897 2.61474 46.7957 3.39589 46.968 4.46139L47 4.60498C47.1413 5.3561 47.6535 5.97774 48.352 6.246C49.0252 6.54235 49.7994 6.46496 50.4041 6.04088L50.504 5.96703C51.3522 5.34003 52.5186 5.43647 53.2581 6.19472L54.6 7.57318C55.2726 8.26685 55.3571 9.35766 54.8 10.1516C54.3635 10.8153 54.3079 11.6681 54.6539 12.3855L54.7401 12.5906C55.0203 13.2911 55.6269 13.7988 56.352 13.9404C57.2999 14.0989 57.9969 14.9371 58 15.9219V18.205C57.9998 19.0735 57.3873 19.8144 56.552 19.9568C55.865 20.092 55.3054 20.6021 55.0939 21.286C55.0006 21.5594 54.8966 21.8331 54.7819 22.1065C54.5151 22.7075 54.5744 23.4079 54.9381 23.9527C55.4178 24.6374 55.3434 25.5779 54.7621 26.1742L52.9001 28.086C52.3676 28.6321 51.5278 28.7024 50.9161 28.2522C50.4053 27.8942 49.7438 27.8548 49.1961 28.1496C48.8057 28.348 48.4051 28.524 47.9961 28.6768C47.424 28.8792 47.0023 29.3814 46.8921 29.9917C46.7754 30.7594 46.1335 31.3274 45.376 31.3332H42.6Z" stroke="white" stroke-width="4" stroke-linecap="round" stroke-linejoin="round"/>
<path fill-rule="evenodd" clip-rule="evenodd" d="M48.666 16.9741C48.666 19.6172 46.577 21.7598 44 21.7598C41.4229 21.7598 39.334 19.6172 39.334 16.9741C39.334 14.3311 41.4229 12.1885 44 12.1885C46.577 12.1885 48.666 14.3311 48.666 16.9741Z" stroke="white" stroke-width="4" stroke-linecap="round" stroke-linejoin="round"/>
<path d="M38.4578 42.677H36.4643V34.8678C36.4643 34.2862 35.9659 33.7878 35.3845 33.7878H28.0335V31.5862C28.0335 31.0047 27.5351 30.5062 26.9537 30.5062H26.2061V27.6816H27.2029C27.9919 27.6816 28.3657 26.7262 27.7843 26.1862L20.3087 19.2492C19.9764 18.9169 19.4365 18.9169 19.1458 19.2492L11.6702 26.2277C11.0888 26.7677 11.4626 27.7231 12.2517 27.7231H13.2069V30.5477H12.4593C11.8779 30.5477 11.3795 31.0462 11.3795 31.6278V33.8293H4.11158C3.53014 33.8293 3.03177 34.3278 3.03177 34.9093V42.7601H0.996746C0.415311 42.7601 0 43.217 0 43.757C0 44.3386 0.456842 44.754 0.996746 44.754H13.8714C14.2452 44.754 14.5774 44.4217 14.5774 44.0478V39.8939C14.5774 36.9862 16.9862 34.4108 19.8934 34.4939C21.2639 34.5355 22.4683 35.117 23.382 35.9893C24.3372 36.9447 24.8771 38.2324 24.8771 39.6447V44.0478C24.8771 44.4217 25.2094 44.754 25.5831 44.754H38.4162C38.9977 44.754 39.413 44.297 39.413 43.757C39.4545 43.134 38.9977 42.677 38.4578 42.677ZM7.60019 39.6447C7.60019 39.8109 7.47559 39.8939 7.351 39.8939H5.44057C5.27445 39.8939 5.14985 39.7693 5.14985 39.6447V37.8586C5.14985 37.6924 5.27445 37.5678 5.44057 37.5678H7.351C7.47559 37.5678 7.60019 37.6924 7.60019 37.8586V39.6447ZM12.1686 39.6447C12.1686 39.8109 12.044 39.8939 11.9194 39.8939H10.009C9.84286 39.8939 9.71827 39.7693 9.71827 39.6447V37.8586C9.71827 37.6924 9.84286 37.5678 10.009 37.5678H11.9194C12.044 37.5678 12.1686 37.6924 12.1686 37.8586V39.6447ZM22.4268 30.1324L21.9699 29.6754C21.8453 29.5508 21.5962 29.5508 21.4716 29.6754C21.347 29.8001 21.347 30.0493 21.4716 30.1739L21.9284 30.6308C21.3885 31.0462 20.7655 31.337 20.0595 31.4201V30.797C20.0595 30.5893 19.8934 30.4647 19.7273 30.4647C19.5611 30.4647 19.395 30.6308 19.395 30.797V31.4201C18.689 31.337 18.0245 31.0878 17.5261 30.6308L17.983 30.1739C18.1075 30.0493 18.1075 29.8001 17.983 29.6754C17.8584 29.5508 17.6092 29.5508 17.4846 29.6754L17.0277 30.1324C16.6124 29.5924 16.3217 28.9693 16.2386 28.2631H16.8616C17.0693 28.2631 17.1939 28.097 17.1939 27.9308C17.1939 27.7231 17.0277 27.5985 16.8616 27.5985H16.2386C16.3217 26.8923 16.5709 26.2277 17.0277 25.7293L17.4846 26.1862C17.5676 26.2693 17.6507 26.2693 17.7338 26.2693C17.8168 26.2693 17.8999 26.2277 17.983 26.1862C18.1075 26.0616 18.1075 25.8123 17.983 25.6877L17.5261 25.2308C18.1491 24.7323 18.8966 24.4 19.7688 24.4C20.6409 24.4 21.3885 24.7323 22.0115 25.2308L21.5546 25.6877C21.43 25.8123 21.43 26.0616 21.5546 26.1862C21.6377 26.2693 21.7208 26.2693 21.8038 26.2693C21.8869 26.2693 21.9699 26.2277 22.053 26.1862L22.5098 25.7293C22.9252 26.2693 23.2159 26.8923 23.2989 27.5985H22.676C22.4683 27.5985 22.3437 27.7647 22.3437 27.9308C22.3437 28.1385 22.5098 28.2631 22.676 28.2631H23.2989C23.1328 28.9693 22.8836 29.6339 22.4268 30.1324ZM29.6947 39.6447C29.6947 39.8109 29.5701 39.8939 29.4455 39.8939H27.5351C27.369 39.8939 27.2859 39.7693 27.2859 39.6447V37.8586C27.2859 37.6924 27.4105 37.5678 27.5351 37.5678H29.4455C29.6117 37.5678 29.6947 37.6924 29.6947 37.8586V39.6447ZM34.3047 39.6447C34.3047 39.8109 34.1801 39.8939 34.0555 39.8939H32.145C31.9789 39.8939 31.8543 39.7693 31.8543 39.6447V37.8586C31.8543 37.6924 31.9789 37.5678 32.145 37.5678H34.0555C34.2216 37.5678 34.3047 37.6924 34.3047 37.8586V39.6447Z" fill="white"/>
<path d="M21.1393 27.5986H20.2256C20.1841 27.557 20.1426 27.4739 20.0595 27.4324V25.6878C20.0595 25.4801 19.8934 25.3555 19.7272 25.3555C19.5611 25.3555 19.395 25.5216 19.395 25.6878V27.4324C19.2289 27.557 19.1458 27.7232 19.1458 27.9309C19.1458 28.2632 19.4365 28.5539 19.7688 28.5539C19.9764 28.5539 20.1426 28.4293 20.2672 28.3047H21.1808C21.3885 28.3047 21.5131 28.1386 21.5131 27.9724C21.4716 27.7232 21.3054 27.5986 21.1393 27.5986Z" fill="white"/>
<path d="M22.2607 43.5496H22.3437C22.676 43.5496 22.9667 43.2589 22.9667 42.9266V41.7635C22.9667 41.2235 22.9252 40.6835 22.8836 40.1435L22.5929 37.5265C22.5514 37.2358 22.3437 37.0281 22.0945 36.9865L21.2639 36.8619C20.7655 36.7788 20.2672 36.7373 19.7688 36.7373C19.2704 36.7373 18.772 36.7788 18.2737 36.8619L17.4431 36.9865C17.1523 37.0281 16.9447 37.2358 16.9447 37.5265L16.654 40.1435C16.6124 40.6835 16.5709 41.2235 16.5709 41.7635V42.9266C16.5709 43.2589 16.8616 43.5496 17.1939 43.5496H17.2769L16.4048 45.9173C16.3217 46.1666 16.4463 46.4574 16.6955 46.5404C16.737 46.582 16.8201 46.582 16.8616 46.582C17.0693 46.582 17.2354 46.4574 17.3185 46.2497L17.5676 45.585H22.053L22.3022 46.2497C22.3853 46.4574 22.5514 46.582 22.759 46.582C22.8006 46.582 22.8836 46.582 22.9252 46.5404C23.1743 46.4574 23.2989 46.1666 23.2159 45.9173L22.2607 43.5496ZM17.6507 41.8466C17.6507 41.5558 17.8999 41.3066 18.1906 41.3066C18.4813 41.3066 18.7305 41.5558 18.7305 41.8466C18.7305 42.1373 18.4813 42.3866 18.1906 42.3866C17.8999 42.4281 17.6507 42.1789 17.6507 41.8466ZM17.8584 44.5881L18.2321 43.5496H21.2224L21.5962 44.5881H17.8584ZM21.2639 42.4281C20.9732 42.4281 20.724 42.1789 20.724 41.8881C20.724 41.5973 20.9732 41.3481 21.2639 41.3481C21.5546 41.3481 21.8038 41.5973 21.8038 41.8881C21.8038 42.1789 21.5546 42.4281 21.2639 42.4281ZM17.5676 40.2681L17.8168 37.9419L18.3567 37.8588C18.8136 37.7758 19.2704 37.7758 19.7273 37.7758C20.1841 37.7758 20.6409 37.8173 21.0978 37.8588L21.6377 37.9419L21.8869 40.2681H17.5676Z" fill="white"/>
</svg>
