<svg width="56" height="43" viewBox="0 0 56 43" fill="none" xmlns="http://www.w3.org/2000/svg">
<path fill-rule="evenodd" clip-rule="evenodd" d="M38.6 31.3332C37.8669 31.3332 37.2414 30.789 37.1221 30.047C37.0121 29.4468 36.5908 28.9564 36.024 28.7691C35.5622 28.6064 35.1107 28.4146 34.672 28.1947C34.1501 27.9209 33.5239 27.9619 33.04 28.3014C32.4545 28.7332 31.6501 28.6663 31.14 28.1434L29.156 26.1086C28.6221 25.5609 28.5527 24.6975 28.992 24.0675C29.3308 23.5599 29.3796 22.9053 29.12 22.3506C28.949 21.9654 28.7981 21.5709 28.668 21.1691C28.4817 20.5359 27.9676 20.0616 27.334 19.9383C26.57 19.8132 26.0059 19.1402 26 18.3465V15.8009C25.996 14.8862 26.6401 14.1039 27.52 13.9547C28.1875 13.8245 28.7449 13.3555 29 12.7096C29.076 12.5277 29.156 12.3472 29.24 12.1681C29.5793 11.4982 29.5324 10.6914 29.118 10.0675C28.5998 9.32884 28.6794 8.31388 29.306 7.66959L30.764 6.17421C31.4831 5.4364 32.6172 5.34092 33.444 5.94857L33.49 5.98139C34.1074 6.40756 34.893 6.48475 35.578 6.18652C36.3109 5.91597 36.8511 5.27009 37 4.486L37.0201 4.41626C37.1846 3.37825 38.0587 2.61567 39.0841 2.61523H40.8441C41.897 2.61474 42.7957 3.39589 42.968 4.46139L43 4.60498C43.1413 5.3561 43.6535 5.97774 44.352 6.246C45.0252 6.54235 45.7994 6.46496 46.4041 6.04088L46.504 5.96703C47.3522 5.34003 48.5186 5.43647 49.2581 6.19472L50.6 7.57318C51.2726 8.26685 51.3571 9.35766 50.8 10.1516C50.3635 10.8153 50.3079 11.6681 50.6539 12.3855L50.7401 12.5906C51.0203 13.2911 51.6269 13.7988 52.352 13.9404C53.2999 14.0989 53.9969 14.9371 54 15.9219V18.205C53.9998 19.0735 53.3873 19.8144 52.552 19.9568C51.865 20.092 51.3054 20.6021 51.0939 21.286C51.0006 21.5594 50.8966 21.8331 50.7819 22.1065C50.5151 22.7075 50.5744 23.4079 50.9381 23.9527C51.4178 24.6374 51.3434 25.5779 50.7621 26.1742L48.9001 28.086C48.3676 28.6321 47.5278 28.7024 46.9161 28.2522C46.4053 27.8942 45.7438 27.8548 45.1961 28.1496C44.8057 28.348 44.4051 28.524 43.9961 28.6768C43.424 28.8792 43.0023 29.3814 42.8921 29.9917C42.7754 30.7594 42.1335 31.3274 41.376 31.3332H38.6Z" stroke="#0D62FF" stroke-width="4" stroke-linecap="round" stroke-linejoin="round"/>
<path fill-rule="evenodd" clip-rule="evenodd" d="M44.666 16.9741C44.666 19.6172 42.577 21.7598 40 21.7598C37.4229 21.7598 35.334 19.6172 35.334 16.9741C35.334 14.3311 37.4229 12.1885 40 12.1885C42.577 12.1885 44.666 14.3311 44.666 16.9741Z" stroke="#0D62FF" stroke-width="4" stroke-linecap="round" stroke-linejoin="round"/>
<path fill-rule="evenodd" clip-rule="evenodd" d="M5.62065 28.63C6.68731 28.6286 7.64855 29.2795 8.05776 30.2799C8.46693 31.2802 8.24224 32.4313 7.48904 33.1978C6.73584 33.9643 5.60123 34.1939 4.61641 33.7797C3.6316 33.3655 2.98938 32.389 2.98938 31.307C2.98938 29.829 4.16697 28.6314 5.62065 28.63ZM16 34.3434C17.8545 34.3476 19.6301 35.0986 20.9408 36.43C22.2515 37.7615 22.9908 39.5664 22.995 41.4487V41.9644C22.995 42.535 22.5415 42.9986 21.9797 43H10.0202C9.45842 42.9986 9.00482 42.535 9.00482 41.9644V41.4487C9.00898 39.5663 9.74832 37.7614 11.0591 36.43C12.3699 35.0986 14.1455 34.3476 16 34.3434ZM16 27C17.3261 27 18.5203 27.8116 19.028 29.0557C19.5357 30.2998 19.2555 31.7313 18.3178 32.6839C17.3801 33.6349 15.9708 33.9209 14.7459 33.4053C13.521 32.8896 12.7222 31.6751 12.7222 30.3295C12.7222 28.4908 14.1898 27 16 27ZM26.3794 28.6302C27.4446 28.6302 28.4059 29.2825 28.8137 30.2829C29.2215 31.2818 28.9954 32.4329 28.2422 33.1994C27.489 33.9644 26.3558 34.1927 25.371 33.7785C24.3861 33.3643 23.7439 32.3892 23.7439 31.3071C23.7439 29.8277 24.9243 28.6302 26.3794 28.6302ZM5.6203 34.4012C4.12919 34.4055 2.69909 35.0113 1.64646 36.0836C0.592259 37.1572 0 38.6098 0 40.1259V40.5401C0.00138699 40.998 0.366171 41.3685 0.815612 41.37H8.33789C8.35592 39.6285 8.95099 37.9434 10.0273 36.5864C8.96207 35.2183 7.33781 34.4209 5.62065 34.4223L5.6203 34.4012ZM26.3794 34.4012C24.6622 34.3998 23.0379 35.1973 21.9727 36.5654C23.049 37.9222 23.6441 39.6059 23.6621 41.3489H31.1844C31.6338 41.3461 31.9986 40.9755 32 40.519V40.126C31.9972 38.6127 31.4036 37.1615 30.3508 36.0905C29.2966 35.0197 27.8693 34.4167 26.3794 34.4125L26.3794 34.4012Z" fill="#0D62FF"/>
</svg>
