<svg width="800" height="800" viewBox="0 0 800 800" fill="none" xmlns="http://www.w3.org/2000/svg">
<path d="M400 66.667C216 66.667 66.6666 216 66.6666 400C66.6666 584 216 733.334 400 733.334C584 733.334 733.333 584 733.333 400C733.333 216 584 66.667 400 66.667ZM400 166.667C455.333 166.667 500 211.334 500 266.667C500 322 455.333 366.667 400 366.667C344.667 366.667 300 322 300 266.667C300 211.334 344.667 166.667 400 166.667ZM400 640C316.667 640 243 597.334 200 532.667C201 466.334 333.333 430 400 430C466.333 430 599 466.334 600 532.667C557 597.334 483.333 640 400 640Z" fill="#0D62FF"/>
</svg>
