<svg width="88" height="75" viewBox="0 0 88 75" fill="none" xmlns="http://www.w3.org/2000/svg">
<path d="M56.3673 43.5936H56.4264C58.068 43.5936 59.4263 42.2102 59.4616 40.4808C59.4616 40.2214 59.438 39.9744 59.379 39.7273L62.9221 38.1215C63.4654 38.9244 64.3394 39.4556 65.3432 39.4804H65.4023C66.1936 39.4804 66.9376 39.1715 67.5045 38.591C68.095 37.9981 68.4258 37.2075 68.4376 36.3675C68.4494 35.9476 68.3667 35.5399 68.2368 35.157L71.2721 33.1436V33.1559C71.839 33.7735 72.5948 34.107 73.3979 34.1318H73.457C74.2483 34.1318 74.9923 33.823 75.5592 33.2424C76.1497 32.6495 76.4686 31.8589 76.4923 31.019C76.5041 30.6237 76.4332 30.2408 76.3033 29.8825L81.1102 26.8933C81.1338 26.918 81.1456 26.9427 81.1692 26.9674C81.7361 27.585 82.492 27.9309 83.2951 27.9433H83.3542C84.1455 27.9433 84.8895 27.6345 85.4564 27.0539C86.0469 26.461 86.3777 25.6704 86.3894 24.8305C86.4249 23.0764 85.0903 21.6312 83.4132 21.5941C81.7007 21.5694 80.3543 22.9529 80.3188 24.7069C80.307 25.1022 80.3779 25.4727 80.496 25.831L75.6891 28.8326C75.6655 28.8079 75.6537 28.7832 75.6419 28.7585C75.075 28.1409 74.3191 27.8074 73.516 27.7827C72.6892 27.758 71.9333 28.0791 71.3546 28.672C70.7641 29.265 70.4452 30.0555 70.4216 30.8955C70.4098 31.3155 70.4806 31.7355 70.6224 32.106L67.5989 34.1195C67.0556 33.5265 66.2997 33.1436 65.4612 33.1313C64.6226 33.1066 63.8786 33.4277 63.2999 34.0206C62.7093 34.6136 62.3786 35.4041 62.3668 36.2441C62.3668 36.5035 62.3904 36.7505 62.4495 36.9976L58.9064 38.6033C58.8119 38.4675 58.7292 38.344 58.6111 38.2204C58.0442 37.6028 57.2883 37.2569 56.4852 37.2446C54.8081 37.2075 53.4263 38.6034 53.3908 40.3574C53.3554 42.1114 54.6903 43.5689 56.3673 43.5936Z" fill="#0D62FF"/>
<path d="M53.9519 56.5938H58.8283C59.1429 56.5938 59.3901 56.3094 59.3901 55.9475V49.24C59.3901 48.8781 59.1429 48.5938 58.8283 48.5938H53.9519C53.6373 48.5938 53.3901 48.8781 53.3901 49.24V55.9475C53.3901 56.3094 53.6373 56.5938 53.9519 56.5938Z" fill="#0D62FF"/>
<path d="M68.7347 41.5938H63.0456C62.6785 41.5938 62.3901 41.8916 62.3901 42.2706V55.9169C62.3901 56.2959 62.6785 56.5937 63.0456 56.5937H68.7347C69.1017 56.5937 69.3901 56.2959 69.3901 55.9169V42.2706C69.3901 41.8916 69.1017 41.5938 68.7347 41.5938Z" fill="#0D62FF"/>
<path d="M72.9519 37.5938C72.6373 37.5938 72.3901 37.8648 72.3901 38.2098V55.9777C72.3901 56.3227 72.6373 56.5937 72.9519 56.5937H77.8283C78.1429 56.5937 78.3901 56.3227 78.3901 55.9777V38.2098C78.3901 37.8648 78.1429 37.5938 77.8283 37.5938H72.9519Z" fill="#0D62FF"/>
<path d="M85.922 31.5938H81.8583C81.5961 31.5938 81.3901 31.872 81.3901 32.226V55.9615C81.3901 56.3155 81.5961 56.5937 81.8583 56.5937H85.922C86.1841 56.5937 86.3901 56.3155 86.3901 55.9615V32.226C86.3901 31.872 86.1841 31.5938 85.922 31.5938Z" fill="#0D62FF"/>
<path fill-rule="evenodd" clip-rule="evenodd" d="M8.78227 34.5468C10.4489 34.5446 11.9509 35.5617 12.5902 37.1248C13.2296 38.6878 12.8785 40.4864 11.7016 41.6841C10.5248 42.8817 8.75192 43.2405 7.21315 42.5933C5.67438 41.9461 4.67091 40.4204 4.67091 38.7296C4.67091 36.4202 6.5109 34.549 8.78227 34.5468ZM25 43.474C27.8977 43.4806 30.672 44.654 32.7199 46.7344C34.768 48.8149 35.9232 51.635 35.9297 54.5761V55.3819C35.9297 56.2735 35.2211 56.9978 34.3433 57H15.6565C14.7788 56.9978 14.07 56.2735 14.07 55.3819V54.5761C14.0765 51.6349 15.2317 48.8146 17.2798 46.7344C19.328 44.654 22.1023 43.4806 25 43.474ZM25 32C27.072 32 28.938 33.2681 29.7312 35.212C30.5245 37.1559 30.0867 39.3926 28.6216 40.8811C27.1565 42.3671 24.9544 42.814 23.0405 42.0082C21.1266 41.2025 19.8784 39.3048 19.8784 37.2024C19.8784 34.3294 22.1716 32 25 32ZM41.2177 34.5471C42.8822 34.5471 44.3842 35.5664 45.0214 37.1295C45.6586 38.6903 45.3053 40.4889 44.1284 41.6865C42.9516 42.882 41.1809 43.2386 39.6421 42.5914C38.1034 41.9441 37.0999 40.4207 37.0999 38.7299C37.0999 36.4183 38.9442 34.5471 41.2177 34.5471ZM8.78171 43.5645C6.45186 43.5711 4.21733 44.5177 2.57259 46.1931C0.925404 47.8706 0 50.1403 0 52.5091V53.1564C0.00216717 53.8718 0.572143 54.4509 1.27439 54.4531H13.0279C13.0561 51.732 13.9859 49.099 15.6677 46.9788C14.0032 44.8411 11.4653 43.5951 8.78227 43.5973L8.78171 43.5645ZM41.2177 43.5645C38.5346 43.5623 35.9967 44.8083 34.3323 46.946C36.0141 49.066 36.9439 51.6968 36.972 54.4202H48.7256C49.4278 54.4158 49.9978 53.8368 50 53.1235V52.5093C49.9957 50.1449 49.068 47.8773 47.4231 46.2039C45.7759 44.5308 43.5458 43.5886 41.2178 43.582L41.2177 43.5645Z" fill="#0D62FF"/>
</svg>
