<svg width="110" height="135" viewBox="0 0 110 135" fill="none" xmlns="http://www.w3.org/2000/svg">
<path d="M7.57401 106.68C7.57401 95.3251 11.5701 84.8991 18.234 76.7311C25.0192 68.4147 34.574 62.4421 45.488 60.2191C46.4763 60.0199 47.4489 60.4848 47.9255 61.3129L51.9138 68.1996C52.2185 68.727 52.2927 69.3285 52.1599 69.8754H52.1677L47.4607 89.6524L54.9998 94.9766L62.5389 89.6524L57.8319 69.8754C57.6796 69.2348 57.8124 68.5902 58.1522 68.0785L62.0741 61.309C62.6015 60.3989 63.6639 59.9848 64.6366 60.2426C75.4996 62.4848 85.0076 68.4418 91.7656 76.7266C98.4336 84.8946 102.426 95.3246 102.426 106.676C102.426 107.945 101.398 108.973 100.129 108.973H9.86672C8.60112 108.973 7.56982 107.945 7.56982 106.676L7.57401 106.68ZM70.215 47.7581C66.3205 51.6526 60.9416 54.0628 55 54.0628C49.0584 54.0628 43.68 51.6526 39.785 47.7581C35.8905 43.8636 33.4842 38.4847 33.4842 32.5431C33.4842 26.6017 35.8944 21.2231 39.785 17.3281C43.6795 13.4336 49.0584 11.0234 55 11.0234C60.9416 11.0234 66.32 13.4336 70.215 17.3281C74.1095 21.2226 76.5158 26.6015 76.5158 32.5431C76.5158 38.4845 74.1056 43.8631 70.215 47.7581Z" fill="#0D62FF"/>
</svg>
