<svg width="800" height="800" viewBox="0 0 800 800" fill="none" xmlns="http://www.w3.org/2000/svg">
<path d="M800 329.345V234.855C800 197.534 769.747 167.281 732.433 167.281H67.5656C30.2516 167.28 0 197.533 0 234.853V329.975C34.3078 334.903 60.7094 364.331 60.7094 400.005C60.7094 435.678 34.3078 465.109 0 470.025V565.159C0 602.467 30.2516 632.72 67.5656 632.72H732.431C769.745 632.72 799.998 602.467 799.998 565.159V470.655C762.458 468.898 732.541 437.988 732.541 400.006C732.542 362.027 762.459 331.116 800 329.345ZM189.867 590.088H166.622V529.459H189.867V590.088ZM189.867 483.57H166.622V422.944H189.867V483.57ZM189.867 377.056H166.622V316.416H189.867V377.056ZM189.867 270.542H166.622V209.914H189.867V270.542Z" fill="white"/>
</svg>
