<svg width="1058" height="899" viewBox="0 0 1058 899" fill="none" xmlns="http://www.w3.org/2000/svg">
<path fill-rule="evenodd" clip-rule="evenodd" d="M186.212 174.476C221.44 174.43 253.185 195.592 266.7 228.113C280.213 260.633 272.792 298.055 247.917 322.973C223.042 347.891 185.57 355.356 153.046 341.89C120.522 328.424 99.3117 296.681 99.3117 261.503C99.3117 213.454 138.203 174.522 186.212 174.476ZM529 360.214C590.248 360.352 648.888 384.766 692.173 428.051C735.463 471.336 759.88 530.012 760.018 591.206V607.97C760.018 626.521 745.039 641.591 726.485 641.637H331.511C312.958 641.591 297.978 626.521 297.978 607.97V591.206C298.115 530.011 322.532 471.332 365.822 428.051C409.112 384.766 467.753 360.353 529 360.214ZM529 121.486C572.794 121.486 612.237 147.87 629.002 188.315C645.769 228.76 636.515 275.298 605.548 306.266C574.581 337.184 528.037 346.482 487.583 329.718C447.129 312.953 420.747 273.47 420.747 229.727C420.747 169.952 469.218 121.486 529 121.486ZM871.788 174.482C906.97 174.482 938.716 195.689 952.185 228.21C965.652 260.685 958.186 298.107 933.311 323.025C908.436 347.896 871.01 355.317 838.485 341.85C805.961 328.384 784.751 296.687 784.751 261.509C784.751 213.414 823.733 174.482 871.788 174.482ZM186.2 362.096C136.955 362.234 89.7246 381.93 54.9603 416.787C20.1444 451.691 0.584473 498.915 0.584473 548.2V561.666C0.630279 576.552 12.6776 588.599 27.5208 588.645H275.951C276.547 532.031 296.2 477.249 331.747 433.136C296.566 388.659 242.923 362.734 186.212 362.78L186.2 362.096ZM871.788 362.096C815.076 362.051 761.432 387.976 726.253 432.452C761.801 476.561 781.453 531.298 782.049 587.961H1030.48C1045.32 587.87 1057.37 575.823 1057.42 560.982V548.203C1057.32 499.01 1037.72 451.83 1002.95 417.014C968.133 382.202 920.995 362.598 871.791 362.461L871.788 362.096Z" fill="white"/>
</svg>
