<svg width="800" height="800" viewBox="0 0 800 800" fill="none" xmlns="http://www.w3.org/2000/svg">
<g clip-path="url(#clip0_504_16)">
<path d="M800 470.523V584.615C800 607.262 781.621 625.641 758.974 625.641H41.0256C18.3795 625.641 0 607.262 0 584.615V471.795C33.9897 471.795 61.5385 444.226 61.5385 410.256C61.5385 376.267 33.9897 348.718 0 348.718V235.897C0 213.251 18.3795 194.872 41.0256 194.872H758.974C781.621 194.872 800 213.251 800 235.897V347.446C766.01 347.446 738.462 374.995 738.462 408.985C738.462 442.954 766.01 470.523 800 470.523ZM697.436 297.436C697.436 274.79 679.056 256.41 656.41 256.41H143.59C120.944 256.41 102.564 274.79 102.564 297.436V523.077C102.564 545.723 120.944 564.103 143.59 564.103H656.41C679.056 564.103 697.436 545.723 697.436 523.077V297.436ZM656.41 543.59H143.59C132.246 543.59 123.077 534.4 123.077 523.077V297.436C123.077 286.092 132.246 276.923 143.59 276.923H656.41C667.733 276.923 676.923 286.092 676.923 297.436V523.077C676.923 534.4 667.733 543.59 656.41 543.59ZM255.795 390.523L237.19 337.6L218.585 390.523L164.964 392.78L207.097 427.733L192.554 482.051L237.19 450.749L281.805 482.051L267.282 427.754L309.395 392.8L255.795 390.523ZM419.897 390.523L401.292 337.6L382.687 390.523L329.067 392.78L371.2 427.733L356.656 482.051L401.292 450.749L445.908 482.051L431.385 427.754L473.497 392.8L419.897 390.523ZM584 390.523L565.395 337.6L546.79 390.523L493.19 392.78L535.303 427.733L520.759 482.051L565.395 450.749L610.01 482.051L595.487 427.754L637.6 392.8L584 390.523Z" fill="#0D62FF"/>
</g>
<defs>
<clipPath id="clip0_504_16">
<rect width="800" height="800" fill="white"/>
</clipPath>
</defs>
</svg>
