<svg width="32" height="29" viewBox="0 0 32 29" fill="none" xmlns="http://www.w3.org/2000/svg">
<path d="M8.14385 27H23.6994M11.255 20.75V27M20.5883 20.75V27M1.92163 3.5625C1.92163 3.1481 2.08552 2.75067 2.37724 2.45765C2.66897 2.16462 3.06463 2 3.47719 2H28.3661C28.7786 2 29.1743 2.16462 29.466 2.45765C29.7577 2.75067 29.9216 3.1481 29.9216 3.5625V19.1875C29.9216 19.6019 29.7577 19.9993 29.466 20.2924C29.1743 20.5854 28.7786 20.75 28.3661 20.75H3.47719C3.06463 20.75 2.66897 20.5854 2.37724 20.2924C2.08552 19.9993 1.92163 19.6019 1.92163 19.1875V3.5625Z" stroke="white" stroke-width="2.33333" stroke-linecap="round" stroke-linejoin="round"/>
<path d="M9.69934 14.5L14.366 9.8125L17.4771 12.9375L22.1438 8.25" stroke="white" stroke-width="2.33333" stroke-linecap="round" stroke-linejoin="round"/>
</svg>
