<svg width="24" height="25" viewBox="0 0 24 25" fill="none" xmlns="http://www.w3.org/2000/svg">
<path opacity="0.4" d="M16.6765 0.833374H20.6267C22.2627 0.833374 23.5884 2.1702 23.5884 3.82V7.80365C23.5884 9.45345 22.2627 10.7903 20.6267 10.7903H16.6765C15.0405 10.7903 13.7148 9.45345 13.7148 7.80365V3.82C13.7148 2.1702 15.0405 0.833374 16.6765 0.833374Z" fill="#0D62FF"/>
<path fill-rule="evenodd" clip-rule="evenodd" d="M3.2165 0.833374H7.16679C8.80277 0.833374 10.1284 2.1702 10.1284 3.82V7.80365C10.1284 9.45345 8.80277 10.7903 7.16679 10.7903H3.2165C1.58052 10.7903 0.254886 9.45345 0.254886 7.80365V3.82C0.254886 2.1702 1.58052 0.833374 3.2165 0.833374ZM3.21649 14.2098H7.16679C8.80277 14.2098 10.1284 15.5466 10.1284 17.1964V21.1801C10.1284 22.8288 8.80277 24.1667 7.16679 24.1667H3.21649C1.58051 24.1667 0.254883 22.8288 0.254883 21.1801V17.1964C0.254883 15.5466 1.58051 14.2098 3.21649 14.2098ZM20.6266 14.2098H16.6763C15.0403 14.2098 13.7147 15.5466 13.7147 17.1964V21.1801C13.7147 22.8288 15.0403 24.1667 16.6763 24.1667H20.6266C22.2626 24.1667 23.5882 22.8288 23.5882 21.1801V17.1964C23.5882 15.5466 22.2626 14.2098 20.6266 14.2098Z" fill="#0D62FF"/>
</svg>
