<svg width="29" height="29" viewBox="0 0 29 29" fill="none" xmlns="http://www.w3.org/2000/svg">
<path opacity="0.4" d="M19.6762 2.6405H23.6265C25.2625 2.6405 26.5881 3.97733 26.5881 5.62713V9.61078C26.5881 11.2606 25.2625 12.5974 23.6265 12.5974H19.6762C18.0402 12.5974 16.7146 11.2606 16.7146 9.61078V5.62713C16.7146 3.97733 18.0402 2.6405 19.6762 2.6405Z" fill="white"/>
<path fill-rule="evenodd" clip-rule="evenodd" d="M6.2165 2.6405H10.1668C11.8028 2.6405 13.1284 3.97733 13.1284 5.62713V9.61078C13.1284 11.2606 11.8028 12.5974 10.1668 12.5974H6.2165C4.58052 12.5974 3.25489 11.2606 3.25489 9.61078V5.62713C3.25489 3.97733 4.58052 2.6405 6.2165 2.6405ZM6.21649 16.0169H10.1668C11.8028 16.0169 13.1284 17.3538 13.1284 19.0036V22.9872C13.1284 24.6359 11.8028 25.9738 10.1668 25.9738H6.21649C4.58051 25.9738 3.25488 24.6359 3.25488 22.9872V19.0036C3.25488 17.3538 4.58051 16.0169 6.21649 16.0169ZM23.6266 16.0169H19.6763C18.0403 16.0169 16.7147 17.3538 16.7147 19.0036V22.9872C16.7147 24.6359 18.0403 25.9738 19.6763 25.9738H23.6266C25.2626 25.9738 26.5882 24.6359 26.5882 22.9872V19.0036C26.5882 17.3538 25.2626 16.0169 23.6266 16.0169Z" fill="white"/>
</svg>
