<svg width="29" height="23" viewBox="0 0 29 23" fill="none" xmlns="http://www.w3.org/2000/svg">
<path d="M6.68574 0.5C7.614 0.5 8.50424 0.862164 9.16062 1.50682C9.81699 2.15148 10.1857 3.02582 10.1857 3.9375C10.1857 4.84918 9.81699 5.72352 9.16062 6.36818C8.50424 7.01284 7.614 7.375 6.68574 7.375C5.75748 7.375 4.86725 7.01284 4.21087 6.36818C3.55449 5.72352 3.18574 4.84918 3.18574 3.9375C3.18574 3.02582 3.55449 2.15148 4.21087 1.50682C4.86725 0.862164 5.75748 0.5 6.68574 0.5ZM22.7857 0.5C23.714 0.5 24.6042 0.862164 25.2606 1.50682C25.917 2.15148 26.2857 3.02582 26.2857 3.9375C26.2857 4.84918 25.917 5.72352 25.2606 6.36818C24.6042 7.01284 23.714 7.375 22.7857 7.375C21.8575 7.375 20.9672 7.01284 20.3109 6.36818C19.6545 5.72352 19.2857 4.84918 19.2857 3.9375C19.2857 3.02582 19.6545 2.15148 20.3109 1.50682C20.9672 0.862164 21.8575 0.5 22.7857 0.5ZM0.385742 13.3348C0.385742 10.8039 2.47699 8.75 5.05387 8.75H6.92199C7.61762 8.75 8.27824 8.90039 8.87324 9.1668C8.81637 9.47617 8.79012 9.79844 8.79012 10.125C8.79012 11.7664 9.52512 13.2402 10.6845 14.25H1.31762C0.805742 14.25 0.385742 13.8375 0.385742 13.3348ZM18.1176 14.25H18.087C19.2507 13.2402 19.9814 11.7664 19.9814 10.125C19.9814 9.79844 19.9507 9.48047 19.8982 9.1668C20.4932 8.89609 21.1539 8.75 21.8495 8.75H23.7176C26.2945 8.75 28.3857 10.8039 28.3857 13.3348C28.3857 13.8418 27.9657 14.25 27.4539 14.25H18.1176ZM10.1857 10.125C10.1857 9.03098 10.6282 7.98177 11.4159 7.20818C12.2035 6.4346 13.2718 6 14.3857 6C15.4997 6 16.5679 6.4346 17.3556 7.20818C18.1432 7.98177 18.5857 9.03098 18.5857 10.125C18.5857 11.219 18.1432 12.2682 17.3556 13.0418C16.5679 13.8154 15.4997 14.25 14.3857 14.25C13.2718 14.25 12.2035 13.8154 11.4159 13.0418C10.6282 12.2682 10.1857 11.219 10.1857 10.125ZM5.98574 21.3527C5.98574 18.1902 8.59762 15.625 11.8176 15.625H16.9539C20.1739 15.625 22.7857 18.1902 22.7857 21.3527C22.7857 21.9844 22.2651 22.5 21.6176 22.5H7.15387C6.51074 22.5 5.98574 21.9887 5.98574 21.3527Z" fill="#0D62FF"/>
</svg>
